<?xml version="1.0" encoding="UTF-8" standalone="no"?>
<!DOCTYPE svg  PUBLIC '-//W3C//DTD SVG 1.1//EN'  'http://www.w3.org/Graphics/SVG/1.1/DTD/svg11.dtd'>
<svg xmlns="http://www.w3.org/2000/svg">
<defs>
<font id="Value-Bold" horiz-adv-x="516">
<font-face underline-position="-102" font-weight="700" descent="-410" panose-1="2 11 8 3 3 2 4 2 2 3" units-per-em="2048" unicode-range="U+0020-25CA" bbox="-94 -492 2218 1855" x-height="1012" underline-thickness="102" font-family="Value" ascent="1638" cap-height="1434"/>
<missing-glyph horiz-adv-x="2048"/>
<glyph glyph-name=".notdef" horiz-adv-x="2048"/>
<glyph glyph-name=".null" horiz-adv-x="0"/>
<glyph glyph-name="nonmarkingreturn" horiz-adv-x="682"/>
<glyph glyph-name="space" horiz-adv-x="645" unicode=" "/>
<glyph glyph-name="exclam" horiz-adv-x="602" unicode="!" d="M444 451h-270v983h270v-983zM191 19q-48 49 -48 118t48 117q49 49 118 49t117 -49q49 -48 49 -117t-49 -118q-48 -48 -117 -48t-118 48z"/>
<glyph glyph-name="quotedbl" horiz-adv-x="815" unicode='&quot;' d="M496 952l-45 482h282l-45 -482h-192zM127 952l-45 482h283l-46 -482h-192z"/>
<glyph glyph-name="numbersign" horiz-adv-x="1492" unicode="#" d="M639 846l-47 -258h262l47 258h-262zM301 367h-240l48 221h233l47 258h-244l48 221h237l68 367h250l-68 -367h262l70 367h250l-70 -367h240l-48 -221h-233l-47 -258h244l-48 -221h-237l-68 -367h-250l68 367h-262l-70 -367h-250z"/>
<glyph glyph-name="dollar" horiz-adv-x="1054" unicode="$" d="M616 559v-311q82 46 82 153q0 95 -82 158zM358 1081q0 -41 23.5 -73.5t75.5 -65.5v272q-99 -28 -99 -133zM88 111l16 335h21q158 -203 332 -225v424l-13 6q-176 81 -261 180.5t-85 237.5q0 160 102 265q104 105 257 126v129h159v-129q174 -21 269 -106l10 -305h-27 q-128 133 -252 165v-356q8 -6 33 -14q168 -76 254 -177q86 -100 86 -259q0 -170 -102 -286q-103 -117 -271 -142v-136h-159v127q-111 8 -206.5 45.5t-162.5 94.5z"/>
<glyph glyph-name="percent" horiz-adv-x="1327" unicode="%" d="M798 401q-42 -41 -42 -106q0 -67 42 -107q44 -41 105 -41t105 41q43 40 43 107q0 66 -43 106q-44 41 -105 41t-105 -41zM665 64q-98 95 -98 231q0 137 98 230q99 93 238 93t237 -93q99 -93 99 -230t-99 -231q-98 -93 -237 -93t-238 93zM307 1245q-43 -40 -43 -106 q0 -67 43 -107q44 -41 105 -41t104 41q43 40 43 107q0 66 -43 106q-43 41 -104 41t-105 -41zM211 403l-68 129l961 498l67 -129zM174 908q-98 95 -98 231q0 137 98 230q99 93 238 93q140 0 237 -93q99 -93 99 -230t-99 -231q-97 -93 -237 -93q-139 0 -238 93z"/>
<glyph glyph-name="ampersand" horiz-adv-x="1304" unicode="&amp;" d="M459 1104q0 -82 88 -197q107 49 152.5 100t45.5 115q0 65 -37.5 100t-101.5 35q-62 0 -105 -43q-42 -44 -42 -110zM348 408q0 -89 52.5 -140t142.5 -51q88 0 180 70l-260 327q-115 -81 -115 -206zM57 397q0 123 69 232q69 110 187 174q-47 67 -75.5 143.5t-28.5 145.5 q0 113 56 199q55 84 144 127.5t197 43.5q176 0 280 -90q103 -88 103 -237q0 -126 -70 -220q-71 -94 -233 -180l209 -258q78 110 168 277h37l63 -301q-51 -107 -104 -177l225 -276h-332l-75 94q-168 -123 -381 -123q-192 0 -316 116q-123 115 -123 310z"/>
<glyph glyph-name="quotesingle" horiz-adv-x="446" unicode="&apos;" d="M127 952l-45 482h283l-46 -482h-192z"/>
<glyph glyph-name="parenleft" horiz-adv-x="655" unicode="(" d="M414 1434h200q-241 -401 -241 -949q0 -547 241 -948h-200q-136 180 -224 426t-88 522t88 522q89 248 224 427z"/>
<glyph glyph-name="parenright" horiz-adv-x="655" unicode=")" d="M242 -463h-201q242 404 242 948q0 545 -242 949h201q134 -177 223 -426q88 -246 88 -523q0 -276 -88 -522q-89 -249 -223 -426z"/>
<glyph glyph-name="asterisk" horiz-adv-x="856" unicode="*" d="M174 850l-84 145l6 27l287 72l-287 71l-6 27l84 145l29 9l198 -205l-77 272l20 21h168l20 -21l-77 -272l198 205l29 -9l84 -145l-6 -27l-287 -71l287 -72l6 -27l-84 -145l-29 -8l-198 205l77 -273l-20 -20h-168l-20 20l77 273l-198 -205z"/>
<glyph glyph-name="plus" horiz-adv-x="1036" unicode="+" d="M410 643h-320v217h320v320h217v-320h319v-217h-319v-319h-217v319z"/>
<glyph glyph-name="comma" horiz-adv-x="495" unicode="," d="M90 127q0 67 46 113q47 47 110 47q66 0 113 -47t47 -113q0 -159 -79 -252q-66 -80 -184 -145l-18 51q108 71 119 190q-64 0 -109 45q-45 46 -45 111z"/>
<glyph glyph-name="hyphen" horiz-adv-x="827" unicode="-" d="M750 541h-672v217h672v-217z"/>
<glyph glyph-name="period" horiz-adv-x="495" unicode="." d="M90 127q0 67 46 113q47 47 110 47q66 0 113 -47t47 -113q0 -63 -47 -110q-46 -46 -113 -46q-64 0 -110 45q-46 46 -46 111z"/>
<glyph glyph-name="slash" horiz-adv-x="1193" unicode="/" d="M346 0h-315l817 1434h315z"/>
<glyph glyph-name="zero" horiz-adv-x="1449" unicode="0" d="M469 1082q-86 -130 -86 -365t86 -366q87 -130 256 -130q170 0 255 130q87 131 87 366q0 236 -87 365q-85 130 -255 130q-169 0 -256 -130zM92 717q0 159 44 296t126 237t202 156t261 56t261 -56t202 -156t126 -237t44 -296q0 -215 -76 -383q-77 -170 -221 -266 q-145 -97 -336 -97t-336 97q-144 96 -221 266q-76 168 -76 383z"/>
<glyph glyph-name="one" horiz-adv-x="536" unicode="1" d="M414 0h-291v1300l194 134h97v-1434z"/>
<glyph glyph-name="two" horiz-adv-x="1134" unicode="2" d="M1051 0h-994v41l557 698q59 76 86 139.5t27 131.5q0 94 -58.5 150.5t-156.5 56.5q-96 0 -194 -65q-96 -63 -158 -159h-31l16 312q75 75 181 115q106 42 217 42q220 0 342 -113q121 -112 121 -305q0 -119 -46 -227q-48 -112 -149 -233l-281 -338h521v-246z"/>
<glyph glyph-name="three" horiz-adv-x="1165" unicode="3" d="M598 1188h-487v246h919v-41l-328 -424q178 -33 276.5 -152.5t98.5 -312.5q0 -248 -147 -391q-145 -142 -393 -142q-223 0 -383 88l-33 295h31q106 -69 187 -103t187 -34q55 0 102.5 16t86.5 48t61.5 87t22.5 126q0 125 -77 202q-76 78 -216 78q-76 0 -152 -16l-28 63z "/>
<glyph glyph-name="four" horiz-adv-x="1165" unicode="4" d="M664 905l-275 -332h275v332zM664 328h-633v143l827 963h96v-861h150v-245h-150v-328h-290v328z"/>
<glyph glyph-name="five" horiz-adv-x="1146" unicode="5" d="M154 31l-62 321h27q181 -135 385 -135q140 0 217.5 65t77.5 191q0 122 -76 191q-75 69 -205 69q-156 0 -352 -96l-66 10l93 787h823v-246h-604l-43 -260q102 41 213 41q241 0 368 -126.5t127 -359.5q0 -156 -74 -275q-74 -116 -196 -176.5t-277 -60.5q-82 0 -151 8 q-59 7 -101 17q-19 5 -124 35z"/>
<glyph glyph-name="six" horiz-adv-x="1200" unicode="6" d="M445 625q-64 -67 -64 -170q0 -104 64 -171t171 -67t171 67q65 68 65 171q0 102 -65 170q-64 67 -171 67t-171 -67zM80 647q0 268 97 469q75 160 210 252.5t320 93.5q160 0 266 -69l28 -273h-34q-124 97 -260 97q-135 0 -227 -105q-89 -104 -109 -291q47 43 129 75 q84 32 176 32q198 0 326 -131t128 -332q0 -134 -68 -249q-68 -113 -186 -179q-117 -66 -255 -66q-128 0 -237 50.5t-175 142.5q-129 178 -129 483z"/>
<glyph glyph-name="seven" horiz-adv-x="1144" unicode="7" d="M713 1188h-623v246h1034v-41l-698 -1393h-315z"/>
<glyph glyph-name="eight" horiz-adv-x="1155" unicode="8" d="M457 1182q-45 -46 -45 -119t45 -119q47 -47 121 -47q75 0 120 47q45 46 45 119t-45 119q-45 47 -120 47q-74 0 -121 -47zM425 601q-65 -63 -65 -161t65 -161q65 -62 153 -62q87 0 152 62q65 63 65 161t-65 161t-152 63q-88 0 -153 -63zM82 410q0 130 54 217t161 147 q-83 68 -123.5 142.5t-40.5 168.5q0 157 126 267q128 110 319 110t318 -110q126 -110 126 -267q0 -94 -40.5 -168.5t-123.5 -142.5q107 -60 161 -147t54 -217q0 -129 -83 -242q-63 -88 -170 -142.5t-242 -54.5q-111 0 -208.5 39t-159.5 105q-128 137 -128 295z"/>
<glyph glyph-name="nine" horiz-adv-x="1200" unicode="9" d="M412 1149q-64 -67 -64 -170q0 -104 64 -171t172 -67q107 0 171 67t64 171q0 103 -64 170q-65 68 -171 68q-107 0 -172 -68zM70 969q0 135 68 248q69 115 186 179q118 66 256 66q125 0 236 -50q108 -49 175 -142q129 -178 129 -484q0 -268 -97 -469q-74 -160 -209 -252.5 t-320 -93.5q-161 0 -267 70l-28 272h34q125 -96 261 -96t226 104q89 104 109 291q-47 -44 -129 -75q-81 -31 -176 -31q-199 0 -326 130q-128 131 -128 333z"/>
<glyph glyph-name="colon" horiz-adv-x="495" unicode=":" d="M90 823q0 67 46 113q47 47 110 47q66 0 113 -47t47 -113q0 -63 -47 -110q-47 -45 -113 -45q-64 0 -111 45q-45 47 -45 110zM90 127q0 67 46 113q47 47 110 47q66 0 113 -47t47 -113q0 -63 -47 -110q-46 -46 -113 -46q-64 0 -110 45q-46 46 -46 111z"/>
<glyph glyph-name="semicolon" horiz-adv-x="495" unicode=";" d="M90 823q0 67 46 113q47 47 110 47q66 0 113 -47t47 -113q0 -63 -47 -110q-47 -45 -113 -45q-64 0 -111 45q-45 47 -45 110zM90 127q0 67 46 113q47 47 110 47q66 0 113 -47t47 -113q0 -159 -79 -252q-66 -80 -184 -145l-18 51q108 71 119 190q-64 0 -109 45 q-45 46 -45 111z"/>
<glyph glyph-name="less" horiz-adv-x="876" unicode="&lt;" d="M743 184l-653 434v185l653 434h43v-246l-450 -280l450 -281v-246h-43z"/>
<glyph glyph-name="equal" horiz-adv-x="1036" unicode="=" d="M946 807h-856v217h856v-217zM946 356h-856v217h856v-217z"/>
<glyph glyph-name="greater" horiz-adv-x="876" unicode="&gt;" d="M133 184h-43v246l451 281l-451 280v246h43l653 -434v-185z"/>
<glyph glyph-name="question" horiz-adv-x="1044" unicode="?" d="M359 19q-48 50 -48 118q0 69 48 117q49 49 118 49t117 -49q49 -48 49 -117t-49 -118q-48 -48 -117 -48t-118 48zM139 1059h-26l18 297q70 49 160 77.5t180 28.5h9q182 0 296 -92t115 -260q0 -77 -22 -140q-13 -40 -34 -76t-38.5 -57.5t-49.5 -57.5l-69 -78 q-74 -81 -74 -187v-63h-270v38q0 79 21 147q14 43 35.5 81.5t38 59t48.5 58.5q42 49 69 77q75 77 75 169q0 69 -47.5 108.5t-131.5 39.5q-86 0 -169 -53q-80 -51 -134 -117z"/>
<glyph glyph-name="at" horiz-adv-x="1832" unicode="@" d="M887 442q91 0 145 61q55 61 55 150q0 88 -55 149q-54 62 -145 62q-90 0 -146 -62q-55 -61 -55 -149q0 -89 55 -150t146 -61zM102 645q0 174 66 327q68 154 179 259q114 108 264 169q153 62 319 62q224 0 406 -100q183 -98 289 -275q106 -175 106 -389q0 -205 -100 -318 q-101 -114 -245 -114q-87 0 -151 40.5t-98 111.5q-104 -152 -289 -152q-66 0 -129.5 27t-114 75.5t-81.5 123t-31 161.5q0 162 106 274q107 113 262 113q68 0 128 -24.5t91 -63.5v68h195v-422q0 -156 112 -156q60 0 96 51t36 152q0 296 -158 457q-158 162 -430 162 q-175 0 -314 -82q-140 -81 -216 -222q-76 -140 -76 -315q0 -177 72 -316q72 -140 211 -222t323 -82q174 0 379 110h34l-14 -205q-188 -104 -399 -104q-176 0 -331 61.5t-265 170.5q-110 110 -171 262.5t-61 324.5z"/>
<glyph glyph-name="A" horiz-adv-x="1425" unicode="A" d="M713 926l-187 -434h373zM317 0h-282l635 1434h86l635 -1434h-283l-107 246h-577z"/>
<glyph glyph-name="B" horiz-adv-x="1245" unicode="B" d="M414 1184v-324h215q119 0 162 43t43 119t-43 119t-162 43h-215zM414 610v-360h264q211 0 211 180t-211 180h-264zM705 0h-582v1434h506q232 0 357 -100q126 -99 126 -267q0 -108 -58.5 -188.5t-158.5 -124.5q127 -34 206 -125t79 -223q0 -128 -66 -223 q-128 -183 -409 -183z"/>
<glyph glyph-name="C" horiz-adv-x="1345" unicode="C" d="M61 717q0 214 100 384q101 172 274 266q176 95 390 95q133 0 223 -25q95 -26 189 -83l23 -297h-39q-191 143 -383 143q-226 0 -357 -135q-129 -135 -129 -348t129 -349q131 -135 357 -135q192 0 383 144h39l-23 -297q-94 -56 -190 -83q-93 -26 -222 -26q-159 0 -301 55.5 t-245 154.5q-102 99 -160 237t-58 299z"/>
<glyph glyph-name="D" horiz-adv-x="1300" unicode="D" d="M414 1184v-934h61q225 0 356 125q130 124 130 342t-130 342q-131 125 -356 125h-61zM475 0h-352v1434h352q225 0 397 -84q170 -81 269 -247q98 -164 98 -386q0 -223 -98 -387q-96 -162 -267.5 -246t-398.5 -84z"/>
<glyph glyph-name="E" horiz-adv-x="1114" unicode="E" d="M1042 0h-919v1434h911v-246h-620v-328h598v-246h-598v-368h628v-246z"/>
<glyph glyph-name="F" horiz-adv-x="1146" unicode="F" d="M414 0h-291v1434h934v-250h-643v-373h620v-250h-620v-561z"/>
<glyph glyph-name="G" horiz-adv-x="1513" unicode="G" d="M61 717q0 214 106 384q107 173 287 266q182 95 402 95q140 0 250 -31.5t213 -97.5l22 -297h-38q-229 164 -445 164q-229 0 -368 -136q-138 -136 -138 -347q0 -213 129 -349q131 -135 357 -135q87 0 156 20q69 22 139 69v251h-402v246h692v-616q-159 -122 -296 -177 q-138 -55 -302 -55q-159 0 -301 55.5t-245 154.5q-102 99 -160 237t-58 299z"/>
<glyph glyph-name="H" horiz-adv-x="1396" unicode="H" d="M414 0h-291v1434h291v-555h569v555h291v-1434h-291v633h-569v-633z"/>
<glyph glyph-name="I" horiz-adv-x="536" unicode="I" d="M414 0h-291v1434h291v-1434z"/>
<glyph glyph-name="J" horiz-adv-x="817" unicode="J" d="M109 0l-29 246h39q81 -29 143 -29q71 0 111.5 53.5t40.5 155.5v1008h291v-996q0 -226 -107 -347q-106 -120 -270 -120q-65 0 -107 6q-37 6 -112 23z"/>
<glyph glyph-name="K" horiz-adv-x="1308" unicode="K" d="M414 0h-291v1434h291v-652l501 652h316l-539 -695l590 -739h-344l-524 653v-653z"/>
<glyph glyph-name="L" horiz-adv-x="1200" unicode="L" d="M1114 0h-991v1434h291v-1188h700v-246z"/>
<glyph glyph-name="M" horiz-adv-x="1839" unicode="M" d="M330 0h-285l381 1434h94l400 -883l399 883h94l381 -1434h-285l-206 760l-351 -760h-65l-350 760z"/>
<glyph glyph-name="N" horiz-adv-x="1447" unicode="N" d="M414 0h-291v1434h123l788 -854v854h291v-1434h-123l-788 854v-854z"/>
<glyph glyph-name="O" horiz-adv-x="1650" unicode="O" d="M485 1076q-133 -136 -133 -359q0 -224 133 -360t340 -136q206 0 339 136q134 137 134 360q0 222 -134 359q-133 136 -339 136q-207 0 -340 -136zM120 420q-59 141 -59 297q0 157 59 296q120 278 405 392q143 57 300 57q158 0 299 -57q286 -114 405 -392q60 -138 60 -296 q0 -157 -60 -297q-118 -277 -405 -392q-141 -57 -299 -57q-157 0 -300 57q-285 115 -405 392z"/>
<glyph glyph-name="P" horiz-adv-x="1105" unicode="P" d="M414 1184v-393h129q233 0 233 196q0 197 -233 197h-129zM414 0h-291v1434h418q245 0 385 -121q141 -120 141 -326t-141 -326t-385 -120h-127v-541z"/>
<glyph glyph-name="Q" horiz-adv-x="1669" unicode="Q" d="M825 221q134 0 234 55l-133 136l182 182l133 -133q57 111 57 256q0 222 -134 359q-133 136 -339 136q-207 0 -340 -136t-133 -359q0 -224 133 -360t340 -136zM1589 717q0 -259 -151 -455l211 -209l-181 -184l-221 219q-183 -117 -422 -117q-157 0 -300 57 q-285 115 -405 392q-59 141 -59 297q0 157 59 296q60 139 162 237q103 100 243 155q143 57 300 57q158 0 299 -57q141 -55 244 -155q103 -98 161 -237q60 -138 60 -296z"/>
<glyph glyph-name="R" horiz-adv-x="1202" unicode="R" d="M414 1184v-328h137q215 0 215 164t-215 164h-137zM414 0h-291v1434h452q215 0 348 -111q134 -110 134 -303q0 -137 -71.5 -236t-199.5 -145l383 -639h-321l-365 606h-69v-606z"/>
<glyph glyph-name="S" horiz-adv-x="1054" unicode="S" d="M88 111l16 335h21q86 -110 178.5 -167.5t202.5 -57.5q88 0 140 48t52 132v11q0 78 -67 134q-17 16 -51 36q-38 22 -61 33q-25 13 -75 36q-176 81 -261 180.5t-85 237.5q0 120 61 211q60 89 156.5 135.5t212.5 46.5q237 0 357 -108l10 -305h-27q-164 176 -333 176 q-83 0 -130 -37t-47 -107q0 -65 62 -113q67 -50 229 -124q168 -76 254 -177q86 -100 86 -259q0 -195 -130 -316q-128 -121 -339 -121q-132 0 -244 38t-188 102z"/>
<glyph glyph-name="T" horiz-adv-x="1101" unicode="T" d="M406 1188h-345v246h979v-246h-344v-1188h-290v1188z"/>
<glyph glyph-name="U" horiz-adv-x="1355" unicode="U" d="M102 569v865h291v-889q0 -183 88 -260q79 -68 197 -68t196 68q89 76 89 260v889h290v-865q0 -277 -152 -438q-151 -160 -423 -160q-273 0 -424 160q-152 161 -152 438z"/>
<glyph glyph-name="V" horiz-adv-x="1449" unicode="V" d="M662 0l-631 1434h315l379 -918l379 918h315l-631 -1434h-126z"/>
<glyph glyph-name="W" horiz-adv-x="2039" unicode="W" d="M537 0l-492 1434h315l273 -805l309 805h156l309 -805l272 805h316l-492 -1434h-127l-356 926l-356 -926h-127z"/>
<glyph glyph-name="X" horiz-adv-x="1306" unicode="X" d="M350 0h-315l467 774l-400 660h316l235 -408l238 408h315l-401 -660l469 -774h-316l-305 518z"/>
<glyph glyph-name="Y" horiz-adv-x="1257" unicode="Y" d="M483 606l-454 828h321l279 -551l278 551h322l-455 -828v-606h-291v606z"/>
<glyph glyph-name="Z" horiz-adv-x="1239" unicode="Z" d="M1171 0h-1130v41l674 1147h-613v246h1045v-41l-674 -1147h698v-246z"/>
<glyph glyph-name="bracketleft" horiz-adv-x="632" unicode="[" d="M561 -463h-438v1897h438v-246h-168v-1405h168v-246z"/>
<glyph glyph-name="backslash" horiz-adv-x="1193" unicode="\" d="M848 0l-817 1434h315l817 -1434h-315z"/>
<glyph glyph-name="bracketright" horiz-adv-x="632" unicode="]" d="M72 -463v246h168v1405h-168v246h438v-1897h-438z"/>
<glyph glyph-name="asciicircum" horiz-adv-x="1114" unicode="^" d="M317 799h-245v43l393 592h184l393 -592v-43h-245l-240 362z"/>
<glyph glyph-name="underscore" horiz-adv-x="1069" unicode="_" d="M45 -217v217h979v-217h-979z"/>
<glyph glyph-name="grave" horiz-adv-x="667" unicode="`" d="M365 1153l-291 281h332l188 -281h-229z"/>
<glyph glyph-name="a" horiz-adv-x="1249" unicode="a" d="M403 709q-75 -83 -75 -203t75 -203q76 -82 201 -82t201 82t76 203t-76 203t-201 82t-201 -82zM124 774q68 123 185 194q117 72 256 72q98 0 179 -32.5t124 -87.5v92h271v-1012h-271v92q-62 -59 -135 -91q-72 -30 -184 -30q-151 0 -278 92q-96 70 -155 184.5t-59 255.5 q0 150 67 271z"/>
<glyph glyph-name="b" horiz-adv-x="1261" unicode="b" d="M447 710q-78 -80 -78 -204t78 -205q80 -80 204 -80t204 80q79 80 79 205t-79 204q-79 81 -204 81t-204 -81zM381 0h-270v1475h270v-560q110 125 321 125q212 0 354 -139q70 -68 109 -170.5t39 -224.5q0 -234 -141 -385q-140 -150 -356 -150q-205 0 -326 135v-106z"/>
<glyph glyph-name="c" horiz-adv-x="997" unicode="c" d="M606 1040q186 0 295 -79l10 -285h-28q-131 115 -277 115q-125 0 -202 -80q-76 -79 -76 -205t76 -205q77 -80 202 -80q146 0 277 115h28l-10 -285q-112 -80 -295 -80q-108 0 -207 36.5t-175 103.5q-78 68 -122.5 171.5t-44.5 223.5q0 121 45 224t122 170q76 67 175 103.5 t207 36.5z"/>
<glyph glyph-name="d" horiz-adv-x="1261" unicode="d" d="M406 710q-78 -80 -78 -204t78 -205q80 -80 204 -80t204 80q79 80 79 205t-79 204q-80 81 -204 81t-204 -81zM57 506q0 122 39 224.5t108 170.5q144 139 355 139q212 0 322 -125v560h270v-1475h-270v106q-121 -135 -326 -135q-216 0 -357 150q-141 151 -141 385z"/>
<glyph glyph-name="e" horiz-adv-x="1157" unicode="e" d="M322 618h499q-11 94 -78 153q-67 60 -163 60q-92 0 -161.5 -56.5t-96.5 -156.5zM57 514q0 223 151 374q152 152 372 152q123 0 223 -42.5t162 -118.5q127 -151 127 -365v-80h-777q23 -112 105.5 -172.5t204.5 -60.5q210 0 364 133h29l-10 -256q-185 -107 -402 -107 q-150 0 -277 71q-124 70 -199 196q-73 124 -73 276z"/>
<glyph glyph-name="f" horiz-adv-x="731" unicode="f" d="M182 782h-112v230h112v110q0 86 30 154.5t81 108.5q99 77 225 77q99 0 178 -43l11 -237h-25q-53 53 -127 53q-48 0 -75 -29t-27 -80v-114h163v-230h-163v-782h-271v782z"/>
<glyph glyph-name="g" horiz-adv-x="1232" unicode="g" d="M400 712q-72 -80 -72 -192t72 -192q72 -78 196 -78t196 78q72 80 72 192t-72 192q-72 79 -196 79t-196 -79zM57 520q0 118 43 219.5t117 166.5q151 134 338 134q193 0 297 -120v92h270v-920q0 -310 -159 -450q-149 -134 -404 -134q-189 0 -323 80l-11 256h54 q124 -86 280 -86q139 0 216 74t77 211v66q-49 -50 -125.5 -79.5t-169.5 -29.5q-212 0 -356 149q-144 150 -144 371z"/>
<glyph glyph-name="h" horiz-adv-x="1187" unicode="h" d="M381 0h-270v1475h270v-588q54 69 147 111t193 42q168 0 269 -89q100 -88 100 -261v-690h-271v594q0 97 -50.5 147t-141.5 50q-100 0 -174 -74q-72 -73 -72 -195v-522z"/>
<glyph glyph-name="i" d="M393 0h-270v1012h270v-1012zM88 1319q0 72 49 121q49 51 119 51t121 -51q51 -50 51 -121q0 -69 -51 -119q-49 -49 -121 -49q-70 0 -119 49t-49 119z" unicode="i"/>
<glyph glyph-name="j" d="M90 1319q0 72 49 121q50 51 119 51q70 0 121 -51q51 -50 51 -121q0 -69 -51 -119q-49 -49 -121 -49q-70 0 -119 49t-49 119zM-70 -457l-24 221h41q29 -18 46 -24q18 -6 50 -6q38 0 59 24t21 68v1186h270v-1162q0 -90 -26 -157.5t-72 -107t-103 -58.5t-124 -19 q-82 0 -138 35z" unicode="j"/>
<glyph glyph-name="k" horiz-adv-x="1097" unicode="k" d="M381 0h-270v1475h270v-879l352 416h322l-398 -469l426 -543h-346l-356 469v-469z"/>
<glyph glyph-name="l" horiz-adv-x="491" unicode="l" d="M381 0h-270v1475h270v-1475z"/>
<glyph glyph-name="m" horiz-adv-x="1767" unicode="m" d="M381 0h-270v1012h270v-125q47 66 137 110q87 43 182 43q220 0 297 -143q137 143 349 143q149 0 235 -85q88 -85 88 -236v-719h-270v610q0 90 -40 135.5t-116 45.5q-91 0 -154 -69t-63 -177v-545h-270v610q0 181 -158 181q-91 0 -154 -72q-63 -71 -63 -184v-535z"/>
<glyph glyph-name="n" horiz-adv-x="1171" unicode="n" d="M381 0h-270v1012h270v-125q55 71 144 111q89 42 188 42q164 0 262 -89t98 -261v-690h-270v594q0 95 -52 146t-141 51q-100 0 -164 -73q-65 -74 -65 -196v-522z"/>
<glyph glyph-name="o" horiz-adv-x="1224" unicode="o" d="M411 711q-83 -80 -83 -205t83 -205t201 -80t201 80q84 79 84 205t-84 205q-83 80 -201 80t-201 -80zM57 506q0 109 43.5 208.5t119.5 172.5q76 72 178.5 112.5t213.5 40.5t213.5 -40.5t177.5 -112.5q76 -73 120 -172.5t44 -208.5q0 -148 -75 -272q-74 -122 -203 -193 q-127 -70 -277 -70q-151 0 -278 70t-202 193q-75 124 -75 272z"/>
<glyph glyph-name="p" horiz-adv-x="1261" unicode="p" d="M447 710q-78 -80 -78 -204t78 -205q80 -80 204 -80t204 80q79 80 79 205t-79 204q-79 81 -204 81t-204 -81zM381 -463h-270v1475h270v-107q121 135 326 135q216 0 356 -150q141 -150 141 -384q0 -122 -39 -225t-109 -171q-144 -139 -354 -139q-211 0 -321 125v-559z"/>
<glyph glyph-name="q" horiz-adv-x="1261" unicode="q" d="M406 710q-78 -80 -78 -204t78 -205q80 -80 204 -80t204 80q79 80 79 205t-79 204q-80 81 -204 81t-204 -81zM57 506q0 234 141 384t357 150q205 0 326 -135v107h270v-1475h-270v559q-110 -125 -322 -125q-210 0 -355 139q-69 68 -108 171t-39 225z"/>
<glyph glyph-name="r" horiz-adv-x="872" unicode="r" d="M381 0h-270v1012h270v-101q47 61 116.5 95t143.5 34q99 0 164 -47l18 -284h-39q-31 37 -79 59.5t-99 22.5q-97 0 -161 -61q-64 -60 -64 -179v-551z"/>
<glyph glyph-name="s" horiz-adv-x="860" unicode="s" d="M61 70l62 254h12q134 -103 273 -103q59 0 94 22t35 62q0 42 -42 69q-43 27 -157 66q-118 39 -182 113.5t-64 173.5q0 141 106 226q106 87 267 87q156 0 266 -65l10 -258h-14q-77 50 -131 71q-58 23 -129 23q-51 0 -84 -21t-33 -53q0 -42 41 -71q42 -29 154 -66 q96 -32 152 -70q54 -35 80.5 -88.5t29.5 -136.5q0 -108 -55 -185q-106 -149 -330 -149q-209 0 -361 99z"/>
<glyph glyph-name="t" horiz-adv-x="806" unicode="t" d="M182 782h-168v230h168v168l271 123v-291h274v-230h-274v-458q0 -62 29.5 -93.5t80.5 -31.5q76 0 156 59h31l-19 -235q-64 -30 -113 -41t-120 -11q-62 0 -117 20t-100.5 59.5t-72 106.5t-26.5 154v471z"/>
<glyph glyph-name="u" horiz-adv-x="1171" unicode="u" d="M98 322v690h271v-594q0 -96 51.5 -146.5t140.5 -50.5q101 0 165 72q65 74 65 196v523h270v-1012h-270v125q-55 -70 -144 -112t-188 -42q-165 0 -263 89q-98 90 -98 262z"/>
<glyph glyph-name="v" horiz-adv-x="1081" unicode="v" d="M508 0l-494 1012h279l248 -531l247 531h279l-494 -1012h-65z"/>
<glyph glyph-name="w" horiz-adv-x="1585" unicode="w" d="M469 0l-449 1012h279l215 -531l221 531h115l221 -531l215 531h279l-449 -1012h-65l-258 614l-258 -614h-66z"/>
<glyph glyph-name="x" horiz-adv-x="1034" unicode="x" d="M334 0h-303l327 526l-301 486h303l156 -271l158 271h303l-303 -486l330 -526h-304l-184 311z"/>
<glyph glyph-name="y" horiz-adv-x="1079" unicode="y" d="M412 197l-398 815h279l248 -531l245 531h279l-717 -1475h-278z"/>
<glyph glyph-name="z" horiz-adv-x="1019" unicode="z" d="M932 0h-860v41l436 721h-391v250h807v-41l-430 -721h438v-250z"/>
<glyph glyph-name="braceleft" horiz-adv-x="731" unicode="{" d="M115 362h-54v246h54q55 0 80.5 26t25.5 87v450q0 122 68 192.5t192 70.5h178v-246h-79q-88 0 -88 -103v-370q0 -96 -38.5 -150.5t-115.5 -79.5q77 -25 115.5 -79t38.5 -150v-371q0 -102 88 -102h79v-246h-178q-124 0 -192 70t-68 192v451q0 61 -25.5 86.5t-80.5 25.5z "/>
<glyph glyph-name="bar" d="M393 -463h-270v1897h270v-1897z" unicode="|"/>
<glyph glyph-name="braceright" horiz-adv-x="731" unicode="}" d="M72 -463v246h80q88 0 88 102v371q0 97 38 150.5t115 78.5q-77 25 -115 79t-38 151v370q0 103 -88 103h-80v246h178q124 0 192 -70.5t68 -192.5v-450q0 -61 25.5 -87t80.5 -26h54v-246h-54q-55 0 -80.5 -25.5t-25.5 -86.5v-451q0 -122 -68 -192t-192 -70h-178z"/>
<glyph glyph-name="asciitilde" horiz-adv-x="989" unicode="~" d="M111 535h-21l16 219q72 96 216 96q97 0 205 -55q110 -54 173 -54q99 0 179 95h20l-16 -220q-72 -96 -215 -96q-96 0 -208 54q-110 55 -171 55q-84 0 -178 -94z"/>
<glyph glyph-name="uni00A0" horiz-adv-x="645" unicode=" "/>
<glyph glyph-name="exclamdown" horiz-adv-x="602" unicode="¡" d="M444 -422h-270v983h270v-983zM191 757q-48 48 -48 117t48 117q49 49 118 49t117 -49q49 -48 49 -117t-49 -117q-48 -48 -117 -48t-118 48z"/>
<glyph glyph-name="cent" horiz-adv-x="997" unicode="¢" d="M524 231v549q-92 -25 -144 -98t-52 -176t52 -176.5t144 -98.5zM57 506q0 109 36.5 204t101.5 161q136 137 329 163v256h160v-254q132 -12 217 -75l10 -285h-28q-105 87 -199 106v-555q94 19 199 109h28l-10 -285q-88 -64 -217 -76v-254h-160v256q-128 16 -234 83 q-105 67 -169 182t-64 264z"/>
<glyph glyph-name="sterling" horiz-adv-x="1118" unicode="£" d="M117 655h-127v217h145q31 280 182 435q150 155 381 155q90 0 154 -18q63 -16 135 -53l33 -293l-37 -11q-148 130 -285 130q-122 0 -190 -85t-90 -260h327v-217h-346l-32 -409h680v-246h-986z"/>
<glyph glyph-name="currency" horiz-adv-x="1224" unicode="¤" d="M456 875q-65 -62 -65 -158t65 -159q65 -62 156 -62t156 62q66 63 66 159q0 97 -66 158q-64 63 -156 63t-156 -63zM244 219l-129 129l129 131q-74 107 -74 238q0 130 74 237l-129 131l129 129l137 -135q112 64 231 64q120 0 232 -64l137 135l129 -129l-129 -131 q74 -107 74 -237q0 -131 -74 -238l129 -131l-129 -129l-137 135q-110 -63 -232 -63t-231 63z"/>
<glyph glyph-name="yen" horiz-adv-x="1257" unicode="¥" d="M360 852l-331 582h321l279 -510l278 510h322l-332 -582h160v-217h-283v-117h283v-217h-283v-301h-291v301h-282v217h282v117h-282v217h159z"/>
<glyph glyph-name="brokenbar" d="M393 614h-270v820h270v-820zM123 -463v819h270v-819h-270z" unicode="¦"/>
<glyph glyph-name="section" horiz-adv-x="1069" unicode="§" d="M362 549q0 -77 67 -135t210 -129l10 -6q64 64 64 143q0 77 -67 135q-68 59 -210 129l-10 6q-64 -64 -64 -143zM72 524q0 100 41 168q43 68 123 131q-115 112 -115 260q0 172 121 275q122 104 313 104q111 0 204.5 -30t145.5 -78l10 -305h-26q-164 176 -334 176 q-80 0 -126 -33.5t-46 -93.5q0 -67 56 -112q55 -44 225 -130q172 -88 256 -187t84 -223q0 -100 -42 -168q-41 -68 -122 -131q114 -111 114 -260q0 -171 -122 -275t-312 -104q-110 0 -203 30.5t-147 78.5l-10 305h26q164 -176 334 -176q80 0 126 33.5t46 93.5q0 51 -39 97 q-15 17 -57 44q-45 28 -77 45q-44 24 -107 56q-172 88 -256 186.5t-84 222.5z"/>
<glyph glyph-name="dieresis" horiz-adv-x="808" unicode="¨" d="M453 1284q0 62 42 106q44 44 103 44q62 0 106 -44t44 -106q0 -59 -44 -103q-44 -42 -106 -42q-60 0 -103 42q-42 43 -42 103zM61 1284q0 63 43 106q44 44 103 44q61 0 105 -44t44 -106q0 -59 -44 -103q-44 -42 -105 -42q-59 0 -103 42q-43 43 -43 103z"/>
<glyph glyph-name="copyright" horiz-adv-x="1646" unicode="©" d="M864 1102q131 0 213 -58l6 -204h-20q-94 82 -199 82q-90 0 -146 -57q-54 -57 -54 -148t54 -148q56 -57 146 -57q105 0 199 82h20l-6 -205q-79 -57 -213 -57q-104 0 -194 44q-90 46 -145 134q-56 89 -56 207t56 207q55 88 143.5 133t195.5 45zM335 1002q-69 -129 -69 -285 q0 -155 69 -286q71 -131 198 -207q130 -77 290 -77q161 0 289 77q129 76 198 207q70 130 70 286q0 157 -70 285q-69 130 -198 207q-128 77 -289 77q-160 0 -290 -77q-127 -77 -198 -207zM158 342q-97 170 -97 375t97 374q97 170 273 271q175 100 392 100q216 0 391 -100 q176 -101 273 -271q98 -170 98 -374q0 -203 -98 -375q-98 -171 -273 -271t-391 -100q-217 0 -392 100t-273 271z"/>
<glyph glyph-name="ordfeminine" horiz-adv-x="882" unicode="ª" d="M229 1073q0 -90 56 -152q57 -61 151 -61q95 0 150 61q57 61 57 152q0 89 -57 150q-55 61 -150 61q-94 0 -151 -61q-56 -62 -56 -150zM408 1448q148 0 225 -84v63h178v-710h-178v63q-77 -84 -225 -84q-151 0 -254 106t-103 271t102 270q103 105 255 105z"/>
<glyph glyph-name="guillemotleft" horiz-adv-x="1165" unicode="«" d="M1040 225l-483 414v143l483 414h43v-250l-272 -235l272 -236v-250h-43zM549 225l-483 414v143l483 414h43v-250l-273 -235l273 -236v-250h-43z"/>
<glyph glyph-name="logicalnot" horiz-adv-x="1007" unicode="¬" d="M631 598h-525v229h795v-481h-270v252z"/>
<glyph glyph-name="uni00AD" horiz-adv-x="827" unicode="­" d="M750 541h-672v217h672v-217z"/>
<glyph glyph-name="registered" horiz-adv-x="1646" unicode="®" d="M743 973v-174h74q113 0 113 88q0 86 -113 86h-74zM743 352h-184v762h299q111 0 184 -62q72 -62 72 -165q0 -76 -40 -132t-111 -81l211 -322h-199l-193 305h-39v-305zM335 1002q-69 -129 -69 -285q0 -155 69 -286q71 -131 198 -207q130 -77 290 -77q161 0 289 77 q129 76 198 207q70 130 70 286q0 157 -70 285q-69 130 -198 207q-128 77 -289 77q-160 0 -290 -77q-127 -77 -198 -207zM158 342q-97 170 -97 375t97 374q97 170 273 271q175 100 392 100q216 0 391 -100q176 -101 273 -271q98 -170 98 -374q0 -203 -98 -375 q-98 -171 -273 -271t-391 -100q-217 0 -392 100t-273 271z"/>
<glyph glyph-name="overscore" horiz-adv-x="634" unicode="¯" d="M573 1167h-512v193h512v-193z"/>
<glyph glyph-name="degree" horiz-adv-x="620" unicode="°" d="M212 1315q-38 -41 -38 -103t38 -103q37 -40 101 -40t101 40q39 41 39 103t-39 103q-38 41 -101 41t-101 -41zM132 1035q-73 72 -73 177t73 177q73 73 181 73t181 -73q73 -72 73 -177t-73 -177q-74 -72 -181 -72t-181 72z"/>
<glyph glyph-name="plusminus" horiz-adv-x="1036" unicode="±" d="M410 643h-320v217h320v320h217v-320h319v-217h-319v-319h-217v319zM946 0h-856v217h856v-217z"/>
<glyph glyph-name="twosuperior" horiz-adv-x="600" unicode="²" d="M557 717h-528v33l268 333q57 71 57 138q0 39 -26.5 62.5t-71.5 23.5q-88 0 -154 -109h-45l9 170q38 38 97 59t124 21q117 0 181 -55.5t64 -149.5q0 -62 -25 -118t-83 -126l-113 -135h246v-147z"/>
<glyph glyph-name="threesuperior" horiz-adv-x="614" unicode="³" d="M285 1286h-230v148h492v-21l-162 -209q87 -21 135.5 -80t48.5 -155q0 -127 -78 -198q-78 -69 -204 -69q-59 0 -116.5 12t-90.5 31l-17 173h27q101 -70 182 -70q125 0 125 121q0 54 -33.5 85t-93.5 31q-18 0 -77 -10l-27 53z"/>
<glyph glyph-name="acute" horiz-adv-x="667" unicode="´" d="M303 1153h-229l188 281h332z"/>
<glyph glyph-name="mu" horiz-adv-x="1171" unicode="µ" d="M369 -463h-271v1475h271v-594q0 -96 51.5 -146.5t140.5 -50.5q101 0 165 72q65 74 65 196v523h270v-1012h-270v125q-55 -70 -144 -112t-188 -42q-47 0 -90 9v-443z"/>
<glyph glyph-name="paragraph" horiz-adv-x="1359" unicode="¶" d="M514 1434h723v-1897h-250v1680h-186v-1680h-250v1098h-37q-216 0 -341 107q-124 106 -124 292t124 292q124 108 341 108z"/>
<glyph glyph-name="middot" horiz-adv-x="473" unicode="·" d="M90 741q0 67 46 113q47 47 110 47q66 0 113 -47t47 -113q0 -63 -47 -110q-47 -45 -113 -45q-64 0 -111 45q-45 47 -45 110z"/>
<glyph glyph-name="cedilla" horiz-adv-x="716" unicode="¸" d="M137 -465l-22 146l24 10q76 -43 150 -43q45 0 70.5 18.5t25.5 52.5q0 74 -94 74q-55 0 -111 -18l-18 20l129 307q13 -5 40 -14l83 -28l41 -15l-131 -162q52 13 100 13q82 0 130 -47t48 -130q0 -99 -75 -155q-76 -56 -197 -56q-110 0 -193 27z"/>
<glyph glyph-name="onesuperior" horiz-adv-x="290" unicode="¹" d="M229 717h-168v649l97 68h71v-717z"/>
<glyph glyph-name="ordmasculine" horiz-adv-x="884" unicode="º" d="M229 1073q0 -94 62 -154q62 -59 151 -59t151 59q62 60 62 154q0 93 -62 152t-151 59t-151 -59t-62 -152zM166 805q-115 109 -115 268q0 158 115 266q115 109 276 109t276 -109q116 -108 116 -266t-116 -268q-115 -109 -276 -109t-276 109z"/>
<glyph glyph-name="guillemotright" horiz-adv-x="1165" unicode="»" d="M616 225h-43v250l273 236l-273 235v250h43l484 -414v-143zM125 225h-43v250l272 236l-272 235v250h43l483 -414v-143z"/>
<glyph glyph-name="onequarter" horiz-adv-x="1081" unicode="¼" d="M633 -10l-137 -166h137v166zM307 -324v121l389 457h105v-430h90v-148h-90v-139h-168v139h-326zM434 717h-168v649l96 68h72v-717zM94 199l-67 129l960 497l68 -129z"/>
<glyph glyph-name="onehalf" horiz-adv-x="1081" unicode="½" d="M401 -463v33l269 334q57 71 57 137q0 39 -26.5 62.5t-71.5 23.5q-88 0 -154 -109h-45l8 170q38 38 97 59t124 21q117 0 181.5 -56t64.5 -149q0 -62 -25 -117.5t-83 -125.5l-113 -135h246v-148h-529zM434 717h-168v649l96 68h72v-717zM94 199l-67 129l960 497l68 -129z "/>
<glyph glyph-name="threequarters" horiz-adv-x="1081" unicode="¾" d="M633 -10l-137 -166h137v166zM307 -324v121l389 457h105v-430h90v-148h-90v-139h-168v139h-326zM272 1286h-229v148h492v-21l-162 -209q87 -21 135.5 -80t48.5 -155q0 -128 -79 -198q-78 -69 -204 -69q-130 0 -206 43l-17 173h27q101 -70 182 -70q125 0 125 121 q0 54 -33.5 85t-93.5 31q-19 0 -78 -10l-26 53zM94 199l-67 129l960 497l68 -129z"/>
<glyph glyph-name="questiondown" horiz-adv-x="929" unicode="¿" d="M386 757q-48 48 -48 117t48 117q49 49 118 49t117 -49q49 -48 49 -117t-49 -117q-48 -48 -117 -48q-68 0 -118 48zM90 -98q0 76 21 140q14 40 36 77t37 55.5t49 58.5q22 26 69 77q75 82 75 188v63h270v-39q0 -82 -22 -148q-13 -42 -34 -79.5t-38.5 -60t-49.5 -59.5 q-33 -38 -69 -76q-74 -79 -74 -169q0 -69 47.5 -108t131.5 -39q85 0 168 53q83 52 135 117h26l-18 -297q-71 -50 -161 -78.5t-179 -28.5h-11q-181 0 -295 93t-114 260z"/>
<glyph glyph-name="Agrave" horiz-adv-x="1425" unicode="À" d="M713 926l-187 -434h373zM584 1575l-291 280h332l188 -280h-229zM317 0h-282l635 1434h86l635 -1434h-283l-107 246h-577z"/>
<glyph glyph-name="Aacute" horiz-adv-x="1425" unicode="Á" d="M842 1575h-230l189 280h332zM713 926l-187 -434h373zM317 0h-282l635 1434h86l635 -1434h-283l-107 246h-577z"/>
<glyph glyph-name="Acircumflex" horiz-adv-x="1425" unicode="Â" d="M713 926l-187 -434h373zM586 1575h-209l188 280h297l189 -280h-209l-129 123zM317 0h-282l635 1434h86l635 -1434h-283l-107 246h-577z"/>
<glyph glyph-name="Atilde" horiz-adv-x="1425" unicode="Ã" d="M713 926l-187 -434h373zM371 1571h-21l17 188q72 96 206 96q97 0 169 -54q74 -54 137 -54q100 0 178 94h20l-16 -188q-73 -97 -207 -97q-94 0 -172 54q-73 55 -133 55q-84 0 -178 -94zM317 0h-282l635 1434h86l635 -1434h-283l-107 246h-577z"/>
<glyph glyph-name="Adieresis" horiz-adv-x="1425" unicode="Ä" d="M762 1706q0 62 42 105q44 44 103 44q62 0 106 -44t44 -105q0 -59 -44 -103q-43 -42 -106 -42q-59 0 -103 42q-42 43 -42 103zM713 926l-187 -434h373zM371 1706q0 62 42 105q44 44 103 44q62 0 106 -44t44 -105q0 -59 -44 -103q-44 -42 -106 -42q-60 0 -103 42 q-42 43 -42 103zM317 0h-282l635 1434h86l635 -1434h-283l-107 246h-577z"/>
<glyph glyph-name="Aring" horiz-adv-x="1425" unicode="Å" d="M604 1571q0 -46 31 -77.5t78 -31.5t77.5 31.5t30.5 77.5t-30.5 77t-77.5 31t-78 -31t-31 -77zM713 926l-187 -434h373zM317 0h-282l608 1374q-64 22 -102.5 75.5t-38.5 121.5q0 87 61 147t150 60t150 -60t61 -147q0 -68 -39 -121.5t-103 -75.5l609 -1374h-283l-107 246 h-577z"/>
<glyph glyph-name="AE" horiz-adv-x="2074" unicode="Æ" d="M713 926l-187 -434h371zM317 0h-282l635 1434h733l110 -246h-636l145 -328h586l106 -246h-584l162 -368h641l107 -246h-932l-107 246h-579z"/>
<glyph glyph-name="Ccedilla" horiz-adv-x="1345" unicode="Ç" d="M61 717q0 214 100 384q101 172 274 266q176 95 390 95q133 0 223 -25q95 -26 189 -83l23 -297h-39q-191 143 -383 143q-226 0 -357 -135q-129 -135 -129 -348t129 -349q131 -135 357 -135q192 0 383 144h39l-23 -297q-96 -56 -186 -82q-89 -26 -213 -27l-72 -88 q52 13 100 13q82 0 130 -47t48 -130q0 -99 -75 -155q-76 -56 -197 -56q-110 0 -192 27l-23 146l25 10q76 -43 149 -43q45 0 70.5 18.5t25.5 52.5q0 74 -94 74q-55 0 -110 -18l-19 20l78 189q-274 45 -448 246q-173 202 -173 487z"/>
<glyph glyph-name="Egrave" horiz-adv-x="1114" unicode="È" d="M569 1575l-290 280h331l189 -280h-230zM1042 0h-919v1434h911v-246h-620v-328h598v-246h-598v-368h628v-246z"/>
<glyph glyph-name="Eacute" horiz-adv-x="1114" unicode="É" d="M608 1575h-229l188 280h332zM1042 0h-919v1434h911v-246h-620v-328h598v-246h-598v-368h628v-246z"/>
<glyph glyph-name="Ecircumflex" horiz-adv-x="1114" unicode="Ê" d="M473 1575h-209l189 280h297l188 -280h-209l-129 123zM1042 0h-919v1434h911v-246h-620v-328h598v-246h-598v-368h628v-246z"/>
<glyph glyph-name="Edieresis" horiz-adv-x="1114" unicode="Ë" d="M657 1706q0 62 43 105q44 44 103 44q61 0 105 -44t44 -105q0 -59 -44 -103q-44 -42 -105 -42q-59 0 -103 42q-43 43 -43 103zM266 1706q0 62 43 105q44 44 103 44q61 0 105 -44t44 -105q0 -59 -44 -103q-43 -42 -105 -42q-60 0 -103 42q-43 43 -43 103zM1042 0h-919v1434 h911v-246h-620v-328h598v-246h-598v-368h628v-246z"/>
<glyph glyph-name="Igrave" horiz-adv-x="536" unicode="Ì" d="M414 0h-291v1434h291v-1434zM207 1575l-291 280h332l188 -280h-229z"/>
<glyph glyph-name="Iacute" horiz-adv-x="536" unicode="Í" d="M414 0h-291v1434h291v-1434zM319 1575h-229l189 280h331z"/>
<glyph glyph-name="Icircumflex" horiz-adv-x="536" unicode="Î" d="M414 0h-291v1434h291v-1434zM141 1575h-209l189 280h297l188 -280h-209l-129 123z"/>
<glyph glyph-name="Idieresis" horiz-adv-x="536" unicode="Ï" d="M317 1706q0 62 43 105q44 44 103 44q61 0 105 -44t44 -105q0 -59 -44 -103q-44 -42 -105 -42q-59 0 -103 42q-43 43 -43 103zM414 0h-291v1434h291v-1434zM-74 1706q0 62 43 105q44 44 103 44q61 0 105 -44t44 -105q0 -59 -44 -103q-43 -42 -105 -42q-59 0 -103 42 q-43 43 -43 103z"/>
<glyph glyph-name="Eth" horiz-adv-x="1349" unicode="Ð" d="M463 608v-358h61q225 0 356 125q130 124 130 342t-130 342q-131 125 -356 125h-61v-359h266v-217h-266zM172 608h-156v217h156v609h352q224 0 397 -84q170 -81 269 -247q98 -164 98 -386q0 -223 -98 -387q-96 -162 -267.5 -246t-398.5 -84h-352v608z"/>
<glyph glyph-name="Ntilde" horiz-adv-x="1447" unicode="Ñ" d="M381 1571h-21l17 188q72 96 207 96q96 0 168 -54q74 -54 137 -54q100 0 178 94h20l-16 -188q-73 -97 -207 -97q-94 0 -172 54q-73 55 -133 55q-84 0 -178 -94zM414 0h-291v1434h123l788 -854v854h291v-1434h-123l-788 854v-854z"/>
<glyph glyph-name="Ograve" horiz-adv-x="1650" unicode="Ò" d="M764 1575l-291 280h332l188 -280h-229zM485 1076q-133 -136 -133 -359q0 -224 133 -360t340 -136q206 0 339 136q134 137 134 360q0 222 -134 359q-133 136 -339 136q-207 0 -340 -136zM120 420q-59 141 -59 297q0 157 59 296q120 278 405 392q143 57 300 57 q158 0 299 -57q286 -114 405 -392q60 -138 60 -296q0 -157 -60 -297q-118 -277 -405 -392q-141 -57 -299 -57q-157 0 -300 57q-285 115 -405 392z"/>
<glyph glyph-name="Oacute" horiz-adv-x="1650" unicode="Ó" d="M887 1575h-230l189 280h332zM485 1076q-133 -136 -133 -359q0 -224 133 -360t340 -136q206 0 339 136q134 137 134 360q0 222 -134 359q-133 136 -339 136q-207 0 -340 -136zM120 420q-59 141 -59 297q0 157 59 296q120 278 405 392q143 57 300 57q158 0 299 -57 q286 -114 405 -392q60 -138 60 -296q0 -157 -60 -297q-118 -277 -405 -392q-141 -57 -299 -57q-157 0 -300 57q-285 115 -405 392z"/>
<glyph glyph-name="Ocircumflex" horiz-adv-x="1650" unicode="Ô" d="M698 1575h-209l189 280h297l188 -280h-209l-129 123zM485 1076q-133 -136 -133 -359q0 -224 133 -360t340 -136q206 0 339 136q134 137 134 360q0 222 -134 359q-133 136 -339 136q-207 0 -340 -136zM120 420q-59 141 -59 297q0 157 59 296q120 278 405 392 q143 57 300 57q158 0 299 -57q286 -114 405 -392q60 -138 60 -296q0 -157 -60 -297q-118 -277 -405 -392q-141 -57 -299 -57q-157 0 -300 57q-285 115 -405 392z"/>
<glyph glyph-name="Otilde" horiz-adv-x="1650" unicode="Õ" d="M483 1571h-20l16 188q72 96 207 96q96 0 168 -54q74 -54 137 -54q100 0 178 94h21l-16 -188q-73 -97 -207 -97q-94 0 -172 54q-73 55 -133 55q-85 0 -179 -94zM485 1076q-133 -136 -133 -359q0 -224 133 -360t340 -136q206 0 339 136q134 137 134 360q0 222 -134 359 q-133 136 -339 136q-207 0 -340 -136zM120 420q-59 141 -59 297q0 157 59 296q120 278 405 392q143 57 300 57q158 0 299 -57q286 -114 405 -392q60 -138 60 -296q0 -157 -60 -297q-118 -277 -405 -392q-141 -57 -299 -57q-157 0 -300 57q-285 115 -405 392z"/>
<glyph glyph-name="Odieresis" horiz-adv-x="1650" unicode="Ö" d="M874 1706q0 62 43 105q44 44 103 44q61 0 105 -44t44 -105q0 -59 -44 -103q-43 -42 -105 -42q-60 0 -103 42q-43 43 -43 103zM483 1706q0 62 43 105q44 44 103 44q61 0 105 -44t44 -105q0 -59 -44 -103q-44 -42 -105 -42q-59 0 -103 42q-43 43 -43 103zM485 1076 q-133 -136 -133 -359q0 -224 133 -360t340 -136q206 0 339 136q134 137 134 360q0 222 -134 359q-133 136 -339 136q-207 0 -340 -136zM120 420q-59 141 -59 297q0 157 59 296q120 278 405 392q143 57 300 57q158 0 299 -57q286 -114 405 -392q60 -138 60 -296 q0 -157 -60 -297q-118 -277 -405 -392q-141 -57 -299 -57q-157 0 -300 57q-285 115 -405 392z"/>
<glyph glyph-name="multiply" horiz-adv-x="937" unicode="×" d="M244 373l-154 153l225 226l-225 225l154 153l225 -225l225 225l154 -153l-225 -225l225 -226l-154 -153l-225 225z"/>
<glyph glyph-name="Oslash" horiz-adv-x="1650" unicode="Ø" d="M1178 1063l-469 -830q55 -12 116 -12q206 0 339 136q134 137 134 360q0 217 -120 346zM352 717q0 -216 121 -346l469 829q-56 12 -117 12q-207 0 -340 -136t-133 -359zM61 717q0 157 59 296q60 139 162 237q103 100 243 155q143 57 300 57q123 0 246 -37l66 117l237 -131 l-63 -111q133 -104 205.5 -254.5t72.5 -328.5q0 -157 -60 -297q-58 -139 -161 -237q-103 -99 -244 -155q-141 -57 -299 -57q-122 0 -245 37l-66 -117l-238 132l64 110q-133 105 -205 254q-74 153 -74 330z"/>
<glyph glyph-name="Ugrave" horiz-adv-x="1355" unicode="Ù" d="M668 1575l-291 280h332l188 -280h-229zM102 569v865h291v-889q0 -183 88 -260q79 -68 197 -68t196 68q89 76 89 260v889h290v-865q0 -277 -152 -438q-151 -160 -423 -160q-273 0 -424 160q-152 161 -152 438z"/>
<glyph glyph-name="Uacute" horiz-adv-x="1355" unicode="Ú" d="M688 1575h-229l188 280h332zM102 569v865h291v-889q0 -183 88 -260q79 -68 197 -68t196 68q89 76 89 260v889h290v-865q0 -277 -152 -438q-151 -160 -423 -160q-273 0 -424 160q-152 161 -152 438z"/>
<glyph glyph-name="Ucircumflex" horiz-adv-x="1355" unicode="Û" d="M551 1575h-209l188 280h297l189 -280h-209l-129 123zM102 569v865h291v-889q0 -183 88 -260q79 -68 197 -68t196 68q89 76 89 260v889h290v-865q0 -277 -152 -438q-151 -160 -423 -160q-273 0 -424 160q-152 161 -152 438z"/>
<glyph glyph-name="Udieresis" horiz-adv-x="1355" unicode="Ü" d="M727 1706q0 62 42 105q44 44 103 44q62 0 106 -44t44 -105q0 -59 -44 -103q-44 -42 -106 -42q-60 0 -103 42q-42 43 -42 103zM336 1706q0 62 42 105q44 44 103 44q62 0 106 -44t44 -105q0 -59 -44 -103q-44 -42 -106 -42q-59 0 -103 42q-42 43 -42 103zM102 569v865h291 v-889q0 -183 88 -260q79 -68 197 -68t196 68q89 76 89 260v889h290v-865q0 -277 -152 -438q-151 -160 -423 -160q-273 0 -424 160q-152 161 -152 438z"/>
<glyph glyph-name="Yacute" horiz-adv-x="1257" unicode="Ý" d="M639 1575h-229l188 280h332zM483 606l-454 828h321l279 -551l278 551h322l-455 -828v-606h-291v606z"/>
<glyph glyph-name="Thorn" horiz-adv-x="1105" unicode="Þ" d="M414 913v-393h129q233 0 233 197q0 196 -233 196h-129zM414 0h-291v1434h291v-271h127q244 0 385 -120t141 -326q0 -205 -141 -327q-141 -120 -385 -120h-127v-270z"/>
<glyph glyph-name="germandbls" horiz-adv-x="1243" unicode="ß" d="M182 782h-112v230h112v32q0 104 38 186t99.5 130t132 73t142.5 25q190 0 303 -98t113 -256q0 -102 -53 -180t-150 -127q168 -41 267 -143q100 -101 100 -271q0 -187 -111 -300q-109 -112 -277 -112q-154 0 -276 99l61 254h13q40 -55 82.5 -79t103.5 -24q63 0 98 39 t35 111q0 98 -92 175t-266 93v246q91 13 142.5 65t51.5 137q0 61 -40 102q-39 42 -103 42q-143 0 -143 -187v-1044h-271v782z"/>
<glyph glyph-name="agrave" horiz-adv-x="1249" unicode="à" d="M403 709q-75 -83 -75 -203t75 -203q76 -82 201 -82t201 82t76 203t-76 203t-201 82t-201 -82zM594 1153l-291 281h332l188 -281h-229zM124 774q68 123 185 194q117 72 256 72q98 0 179 -32.5t124 -87.5v92h271v-1012h-271v92q-62 -59 -135 -91q-72 -30 -184 -30 q-151 0 -278 92q-96 70 -155 184.5t-59 255.5q0 150 67 271z"/>
<glyph glyph-name="aacute" horiz-adv-x="1249" unicode="á" d="M614 1153h-229l188 281h332zM403 709q-75 -83 -75 -203t75 -203q76 -82 201 -82t201 82t76 203t-76 203t-201 82t-201 -82zM124 774q68 123 185 194q117 72 256 72q98 0 179 -32.5t124 -87.5v92h271v-1012h-271v92q-62 -59 -135 -91q-72 -30 -184 -30q-151 0 -278 92 q-96 70 -155 184.5t-59 255.5q0 150 67 271z"/>
<glyph glyph-name="acircumflex" horiz-adv-x="1249" unicode="â" d="M403 709q-75 -83 -75 -203t75 -203q76 -82 201 -82t201 82t76 203t-76 203t-201 82t-201 -82zM477 1153h-209l189 281h297l188 -281h-209l-129 123zM124 774q68 123 185 194q117 72 256 72q98 0 179 -32.5t124 -87.5v92h271v-1012h-271v92q-62 -59 -135 -91 q-72 -30 -184 -30q-151 0 -278 92q-96 70 -155 184.5t-59 255.5q0 150 67 271z"/>
<glyph glyph-name="atilde" horiz-adv-x="1249" unicode="ã" d="M403 709q-75 -83 -75 -203t75 -203q76 -82 201 -82t201 82t76 203t-76 203t-201 82t-201 -82zM262 1149h-20l16 188q73 97 207 97q97 0 168 -55q74 -54 137 -54q100 0 178 94h21l-17 -188q-72 -96 -207 -96q-94 0 -172 54q-74 54 -133 54q-84 0 -178 -94zM124 774 q68 123 185 194q117 72 256 72q98 0 179 -32.5t124 -87.5v92h271v-1012h-271v92q-62 -59 -135 -91q-72 -30 -184 -30q-151 0 -278 92q-96 70 -155 184.5t-59 255.5q0 150 67 271z"/>
<glyph glyph-name="adieresis" horiz-adv-x="1249" unicode="ä" d="M653 1284q0 63 43 106q44 44 103 44q61 0 105 -44t44 -106q0 -59 -44 -103q-44 -42 -105 -42q-59 0 -103 42q-43 43 -43 103zM403 709q-75 -83 -75 -203t75 -203q76 -82 201 -82t201 82t76 203t-76 203t-201 82t-201 -82zM262 1284q0 63 43 106q44 44 103 44 q61 0 105 -44t44 -106q0 -59 -44 -103q-43 -42 -105 -42q-60 0 -103 42q-43 43 -43 103zM124 774q68 123 185 194q117 72 256 72q98 0 179 -32.5t124 -87.5v92h271v-1012h-271v92q-62 -59 -135 -91q-72 -30 -184 -30q-151 0 -278 92q-96 70 -155 184.5t-59 255.5 q0 150 67 271z"/>
<glyph glyph-name="aring" horiz-adv-x="1249" unicode="å" d="M526 1398q-30 -32 -30 -77q0 -47 30 -78t78 -31t78 31q31 31 31 78q0 46 -31 77q-30 32 -78 32t-78 -32zM454 1174q-61 60 -61 147t61 147q62 60 150 60t150 -60q61 -60 61 -147t-61 -147q-62 -60 -150 -60t-150 60zM403 709q-75 -83 -75 -203t75 -203q76 -82 201 -82 t201 82t76 203t-76 203t-201 82t-201 -82zM124 774q68 123 185 194q117 72 256 72q98 0 179 -32.5t124 -87.5v92h271v-1012h-271v92q-62 -59 -135 -91q-72 -30 -184 -30q-151 0 -278 92q-96 70 -155 184.5t-59 255.5q0 150 67 271z"/>
<glyph glyph-name="ae" horiz-adv-x="1771" unicode="æ" d="M938 618h498q-10 94 -78 153q-66 60 -162 60q-92 0 -161.5 -56.5t-96.5 -156.5zM319 289q0 -49 33.5 -79t87.5 -30q102 0 165 75t63 179q-137 0 -212 -16q-137 -27 -137 -129zM57 274q0 169 144 256.5t430 87.5h37q-3 94 -59 150q-55 55 -136 55q-82 0 -146.5 -26.5 t-133.5 -85.5h-43l22 233q60 39 158 68q96 28 190 28q217 0 322 -139q154 139 354 139q123 0 222.5 -43t161.5 -119q126 -150 126 -364v-80h-776q23 -112 105 -172.5t204 -60.5q211 0 365 133h28l-10 -256q-185 -107 -401 -107q-127 0 -238.5 52t-187.5 145 q-85 -110 -183 -154q-96 -43 -223 -43q-137 0 -235 84q-97 84 -97 219z"/>
<glyph glyph-name="ccedilla" horiz-adv-x="997" unicode="ç" d="M57 506q0 121 45 224t122 170q76 67 175 103.5t207 36.5q186 0 295 -79l10 -285h-28q-131 115 -277 115q-125 0 -202 -80q-76 -79 -76 -205t76 -205q77 -80 202 -80q146 0 277 115h28l-10 -285q-109 -77 -280 -80l-72 -88q52 13 100 13q82 0 130 -47t48 -130 q0 -99 -75 -155q-76 -56 -197 -56q-111 0 -193 27l-22 146l25 10q76 -43 149 -43q45 0 70.5 18.5t25.5 52.5q0 74 -94 74q-54 0 -110 -18l-19 20l80 193q-180 41 -295 177t-115 341z"/>
<glyph glyph-name="egrave" horiz-adv-x="1157" unicode="è" d="M322 618h499q-11 94 -78 153q-67 60 -163 60q-92 0 -161.5 -56.5t-96.5 -156.5zM547 1153l-291 281h332l188 -281h-229zM57 514q0 223 151 374q152 152 372 152q123 0 223 -42.5t162 -118.5q127 -151 127 -365v-80h-777q23 -112 105.5 -172.5t204.5 -60.5q210 0 364 133 h29l-10 -256q-185 -107 -402 -107q-150 0 -277 71q-124 70 -199 196q-73 124 -73 276z"/>
<glyph glyph-name="eacute" horiz-adv-x="1157" unicode="é" d="M608 1153h-229l188 281h332zM322 618h499q-11 94 -78 153q-67 60 -163 60q-92 0 -161.5 -56.5t-96.5 -156.5zM57 514q0 223 151 374q152 152 372 152q123 0 223 -42.5t162 -118.5q127 -151 127 -365v-80h-777q23 -112 105.5 -172.5t204.5 -60.5q210 0 364 133h29 l-10 -256q-185 -107 -402 -107q-150 0 -277 71q-124 70 -199 196q-73 124 -73 276z"/>
<glyph glyph-name="ecircumflex" horiz-adv-x="1157" unicode="ê" d="M322 618h499q-11 94 -78 153q-67 60 -163 60q-92 0 -161.5 -56.5t-96.5 -156.5zM451 1153h-209l188 281h297l188 -281h-208l-129 123zM57 514q0 223 151 374q152 152 372 152q123 0 223 -42.5t162 -118.5q127 -151 127 -365v-80h-777q23 -112 105.5 -172.5t204.5 -60.5 q210 0 364 133h29l-10 -256q-185 -107 -402 -107q-150 0 -277 71q-124 70 -199 196q-73 124 -73 276z"/>
<glyph glyph-name="edieresis" horiz-adv-x="1157" unicode="ë" d="M627 1284q0 62 42 106q44 44 103 44q62 0 106 -44t44 -106q0 -59 -44 -103q-44 -42 -106 -42q-60 0 -103 42q-42 43 -42 103zM322 618h499q-11 94 -78 153q-67 60 -163 60q-92 0 -161.5 -56.5t-96.5 -156.5zM236 1284q0 62 42 106q44 44 103 44q61 0 105 -44t44 -106 q0 -59 -44 -103q-44 -42 -105 -42q-59 0 -103 42q-42 43 -42 103zM57 514q0 223 151 374q152 152 372 152q123 0 223 -42.5t162 -118.5q127 -151 127 -365v-80h-777q23 -112 105.5 -172.5t204.5 -60.5q210 0 364 133h29l-10 -256q-185 -107 -402 -107q-150 0 -277 71 q-124 70 -199 196q-73 124 -73 276z"/>
<glyph glyph-name="igrave" d="M393 0h-270v1012h270v-1012zM207 1153l-291 281h332l188 -281h-229z" unicode="ì"/>
<glyph glyph-name="iacute" d="M393 0h-270v1012h270v-1012zM289 1153h-230l189 281h332z" unicode="í"/>
<glyph glyph-name="icircumflex" d="M393 0h-270v1012h270v-1012zM131 1153h-209l189 281h297l188 -281h-209l-129 123z" unicode="î"/>
<glyph glyph-name="idieresis" d="M307 1284q0 63 43 106q44 44 103 44q61 0 105 -44t44 -106q0 -59 -44 -103q-44 -42 -105 -42q-59 0 -103 42q-43 43 -43 103zM393 0h-270v1012h270v-1012zM-84 1284q0 63 43 106q42 44 102 44q61 0 105 -44q45 -44 45 -106q0 -59 -44 -103q-43 -42 -106 -42 q-60 0 -102 42q-43 43 -43 103z" unicode="ï"/>
<glyph glyph-name="eth" horiz-adv-x="1173" unicode="ð" d="M575 217q100 0 166 68q66 67 66 170q0 101 -66 169t-166 68t-166 -68q-65 -68 -65 -169q0 -103 66 -170q66 -68 165 -68zM66 455q0 207 133 340t327 133q151 0 252 -82q-44 153 -153 268l-285 -117l-43 107l231 94q-88 68 -213 131v33l248 108q136 -69 236 -161l176 73 l43 -106l-135 -55q221 -266 221 -631q0 -293 -148 -456q-147 -163 -387 -163q-109 0 -204.5 38t-161.5 105q-137 142 -137 341z"/>
<glyph glyph-name="ntilde" horiz-adv-x="1171" unicode="ñ" d="M260 1149h-20l16 188q73 97 207 97q97 0 168 -55q74 -54 137 -54q100 0 178 94h21l-17 -188q-72 -96 -207 -96q-94 0 -172 54q-74 54 -133 54q-84 0 -178 -94zM381 0h-270v1012h270v-125q55 71 144 111q89 42 188 42q164 0 262 -89t98 -261v-690h-270v594q0 95 -52 146 t-141 51q-100 0 -164 -73q-65 -74 -65 -196v-522z"/>
<glyph glyph-name="ograve" horiz-adv-x="1224" unicode="ò" d="M411 711q-83 -80 -83 -205t83 -205t201 -80t201 80q84 79 84 205t-84 205q-83 80 -201 80t-201 -80zM582 1153l-291 281h332l188 -281h-229zM57 506q0 109 43.5 208.5t119.5 172.5q76 72 178.5 112.5t213.5 40.5t213.5 -40.5t177.5 -112.5q76 -73 120 -172.5t44 -208.5 q0 -148 -75 -272q-74 -122 -203 -193q-127 -70 -277 -70q-151 0 -278 70t-202 193q-75 124 -75 272z"/>
<glyph glyph-name="oacute" horiz-adv-x="1224" unicode="ó" d="M643 1153h-229l188 281h332zM411 711q-83 -80 -83 -205t83 -205t201 -80t201 80q84 79 84 205t-84 205q-83 80 -201 80t-201 -80zM57 506q0 109 43.5 208.5t119.5 172.5q76 72 178.5 112.5t213.5 40.5t213.5 -40.5t177.5 -112.5q76 -73 120 -172.5t44 -208.5 q0 -148 -75 -272q-74 -122 -203 -193q-127 -70 -277 -70q-151 0 -278 70t-202 193q-75 124 -75 272z"/>
<glyph glyph-name="ocircumflex" horiz-adv-x="1224" unicode="ô" d="M411 711q-83 -80 -83 -205t83 -205t201 -80t201 80q84 79 84 205t-84 205q-83 80 -201 80t-201 -80zM485 1153h-209l189 281h297l188 -281h-209l-129 123zM57 506q0 109 43.5 208.5t119.5 172.5q76 72 178.5 112.5t213.5 40.5t213.5 -40.5t177.5 -112.5 q76 -73 120 -172.5t44 -208.5q0 -148 -75 -272q-74 -122 -203 -193q-127 -70 -277 -70q-151 0 -278 70t-202 193q-75 124 -75 272z"/>
<glyph glyph-name="otilde" horiz-adv-x="1224" unicode="õ" d="M411 711q-83 -80 -83 -205t83 -205t201 -80t201 80q84 79 84 205t-84 205q-83 80 -201 80t-201 -80zM270 1149h-20l16 188q73 97 207 97q97 0 168 -55q74 -54 137 -54q100 0 178 94h21l-16 -188q-72 -96 -207 -96q-94 0 -172 54q-74 54 -133 54q-85 0 -179 -94zM57 506 q0 109 43.5 208.5t119.5 172.5q76 72 178.5 112.5t213.5 40.5t213.5 -40.5t177.5 -112.5q76 -73 120 -172.5t44 -208.5q0 -148 -75 -272q-74 -122 -203 -193q-127 -70 -277 -70q-151 0 -278 70t-202 193q-75 124 -75 272z"/>
<glyph glyph-name="odieresis" horiz-adv-x="1224" unicode="ö" d="M662 1284q0 62 42 106q44 44 103 44q61 0 105 -44t44 -106q0 -59 -44 -103q-44 -42 -105 -42q-59 0 -103 42q-42 43 -42 103zM411 711q-83 -80 -83 -205t83 -205t201 -80t201 80q84 79 84 205t-84 205q-83 80 -201 80t-201 -80zM270 1284q0 63 43 106q44 44 103 44 q61 0 105 -44t44 -106q0 -59 -44 -103q-43 -42 -105 -42q-60 0 -103 42q-43 43 -43 103zM57 506q0 109 43.5 208.5t119.5 172.5q76 72 178.5 112.5t213.5 40.5t213.5 -40.5t177.5 -112.5q76 -73 120 -172.5t44 -208.5q0 -148 -75 -272q-74 -122 -203 -193q-127 -70 -277 -70 q-151 0 -278 70t-202 193q-75 124 -75 272z"/>
<glyph glyph-name="divide" horiz-adv-x="1036" unicode="÷" d="M360 1028q0 67 46 113q47 47 110 47q66 0 113 -47t47 -113q0 -63 -47 -110q-46 -46 -113 -46q-64 0 -110 46t-46 110zM360 332q0 67 46 113q47 47 110 47q66 0 113 -47t47 -113q0 -63 -47 -110q-46 -46 -113 -46q-64 0 -110 46t-46 110zM946 573h-856v218h856v-218z"/>
<glyph glyph-name="oslash" horiz-adv-x="1224" unicode="ø" d="M844 676l-252 -455h20q118 0 201 80q84 79 84 205q0 102 -53 170zM328 506q0 -102 53 -170l252 455h-21q-118 0 -201 -80t-83 -205zM57 506q0 109 43.5 208.5t119.5 172.5q76 72 178.5 112.5t213.5 40.5q70 0 150 -20l51 94l211 -115l-49 -88q91 -75 141.5 -179.5 t50.5 -225.5q0 -148 -75 -272q-74 -122 -203 -193q-127 -70 -277 -70q-66 0 -149 21l-51 -94l-211 114l49 88q-91 75 -142 180t-51 226z"/>
<glyph glyph-name="ugrave" horiz-adv-x="1171" unicode="ù" d="M535 1153l-291 281h331l189 -281h-229zM98 322v690h271v-594q0 -96 51.5 -146.5t140.5 -50.5q101 0 165 72q65 74 65 196v523h270v-1012h-270v125q-55 -70 -144 -112t-188 -42q-165 0 -263 89q-98 90 -98 262z"/>
<glyph glyph-name="uacute" horiz-adv-x="1171" unicode="ú" d="M616 1153h-229l188 281h332zM98 322v690h271v-594q0 -96 51.5 -146.5t140.5 -50.5q101 0 165 72q65 74 65 196v523h270v-1012h-270v125q-55 -70 -144 -112t-188 -42q-165 0 -263 89q-98 90 -98 262z"/>
<glyph glyph-name="ucircumflex" horiz-adv-x="1171" unicode="û" d="M455 1153h-209l188 281h297l189 -281h-209l-129 123zM98 322v690h271v-594q0 -96 51.5 -146.5t140.5 -50.5q101 0 165 72q65 74 65 196v523h270v-1012h-270v125q-55 -70 -144 -112t-188 -42q-165 0 -263 89q-98 90 -98 262z"/>
<glyph glyph-name="udieresis" horiz-adv-x="1171" unicode="ü" d="M635 1284q0 62 42 106q44 44 103 44q62 0 106 -44t44 -106q0 -59 -44 -103q-44 -42 -106 -42q-60 0 -103 42q-42 43 -42 103zM244 1284q0 62 42 106q44 44 103 44q61 0 105 -44q45 -44 45 -106q0 -59 -44 -103q-43 -42 -106 -42q-59 0 -103 42q-42 43 -42 103zM98 322 v690h271v-594q0 -96 51.5 -146.5t140.5 -50.5q101 0 165 72q65 74 65 196v523h270v-1012h-270v125q-55 -70 -144 -112t-188 -42q-165 0 -263 89q-98 90 -98 262z"/>
<glyph glyph-name="yacute" horiz-adv-x="1079" unicode="ý" d="M569 1153h-229l188 281h332zM412 197l-398 815h279l248 -531l245 531h279l-717 -1475h-278z"/>
<glyph glyph-name="thorn" horiz-adv-x="1261" unicode="þ" d="M447 710q-78 -80 -78 -204t78 -205q80 -80 204 -80t204 80q79 80 79 205t-79 204q-79 81 -204 81t-204 -81zM381 -463h-270v1897h270v-529q121 135 326 135q216 0 356 -150q141 -150 141 -384q0 -122 -39 -225t-109 -171q-144 -139 -354 -139q-211 0 -321 125v-559z"/>
<glyph glyph-name="OE" horiz-adv-x="2289" unicode="Œ" d="M825 221q204 0 338 137q135 136 135 359q0 221 -134 358t-339 137q-207 0 -340 -136t-133 -359q0 -224 133 -360t340 -136zM825 1462q272 0 473 -153v125h912v-246h-621v-328h598v-246h-598v-368h629v-246h-920v123q-205 -152 -473 -152q-157 0 -300 57q-140 57 -243 155 q-102 97 -162 237q-59 141 -59 297q0 157 59 296q60 139 162 237q103 100 243 155q143 57 300 57z"/>
<glyph glyph-name="oe" horiz-adv-x="2009" unicode="œ" d="M1174 618h499q-10 94 -77 153q-66 60 -162 60q-91 0 -162 -56t-98 -157zM411 711q-83 -80 -83 -205t83 -205t201 -80t201 80q84 79 84 205t-84 205q-83 80 -201 80t-201 -80zM57 506q0 109 43.5 208.5t119.5 172.5q76 72 178.5 112.5t213.5 40.5q123 0 233 -49t189 -137 q159 186 400 186q123 0 222.5 -43t161.5 -119q126 -150 126 -364v-80h-777q23 -112 105.5 -172.5t204.5 -60.5q210 0 364 133h29l-10 -256q-185 -107 -402 -107q-126 0 -236 49.5t-186 139.5q-79 -90 -189 -139.5t-235 -49.5q-151 0 -278 70t-202 193q-75 124 -75 272z"/>
<glyph glyph-name="Scaron" horiz-adv-x="1054" unicode="Š" d="M389 1575l-188 280h209l127 -122l129 122h208l-188 -280h-297zM88 111l16 335h21q86 -110 178.5 -167.5t202.5 -57.5q88 0 140 48t52 132v11q0 78 -67 134q-17 16 -51 36q-38 22 -61 33q-25 13 -75 36q-176 81 -261 180.5t-85 237.5q0 120 61 211q60 89 156.5 135.5 t212.5 46.5q237 0 357 -108l10 -305h-27q-164 176 -333 176q-83 0 -130 -37t-47 -107q0 -65 62 -113q67 -50 229 -124q168 -76 254 -177q86 -100 86 -259q0 -195 -130 -316q-128 -121 -339 -121q-132 0 -244 38t-188 102z"/>
<glyph glyph-name="scaron" horiz-adv-x="860" unicode="š" d="M283 1153l-189 281h209l127 -123l129 123h209l-188 -281h-297zM61 70l62 254h12q134 -103 273 -103q59 0 94 22t35 62q0 42 -42 69q-43 27 -157 66q-118 39 -182 113.5t-64 173.5q0 141 106 226q106 87 267 87q156 0 266 -65l10 -258h-14q-77 50 -131 71q-58 23 -129 23 q-51 0 -84 -21t-33 -53q0 -42 41 -71q42 -29 154 -66q96 -32 152 -70q54 -35 80.5 -88.5t29.5 -136.5q0 -108 -55 -185q-106 -149 -330 -149q-209 0 -361 99z"/>
<glyph glyph-name="Ydieresis" horiz-adv-x="1257" unicode="Ÿ" d="M678 1706q0 62 42 105q44 44 103 44q62 0 106 -44t44 -105q0 -59 -44 -103q-43 -42 -106 -42q-59 0 -103 42q-42 43 -42 103zM287 1706q0 62 42 105q44 44 103 44q62 0 106 -44t44 -105q0 -59 -44 -103q-44 -42 -106 -42q-60 0 -103 42q-42 43 -42 103zM483 606l-454 828 h321l279 -551l278 551h322l-455 -828v-606h-291v606z"/>
<glyph glyph-name="circumflex" horiz-adv-x="829" unicode="ˆ" d="M287 1153h-209l188 281h297l189 -281h-209l-129 123z"/>
<glyph glyph-name="tilde" horiz-adv-x="1075" unicode="˜" d="M195 1149h-21l16 188q73 97 207 97q97 0 168 -55q74 -54 137 -54q101 0 179 94h20l-16 -188q-72 -96 -207 -96q-94 0 -172 54q-74 54 -133 54q-84 0 -178 -94z"/>
<glyph glyph-name="pi" horiz-adv-x="1234" unicode="π" d="M164 819h-141v193h1189v-193h-141v-819h-270v819h-367v-819h-270v819z"/>
<glyph glyph-name="uni2002" horiz-adv-x="1067" unicode=" "/>
<glyph glyph-name="uni2003" horiz-adv-x="2134" unicode=" "/>
<glyph glyph-name="uni2009" horiz-adv-x="426" unicode=" "/>
<glyph glyph-name="endash" horiz-adv-x="1134" unicode="–" d="M1057 541h-979v217h979v-217z"/>
<glyph glyph-name="emdash" horiz-adv-x="1810" unicode="—" d="M1733 541h-1655v217h1655v-217z"/>
<glyph glyph-name="quoteleft" horiz-adv-x="479" unicode="‘" d="M82 1079q0 229 237 375l43 -43q-108 -78 -118 -190q65 0 108 -46q45 -45 45 -110q0 -67 -46 -113q-45 -47 -109 -47q-73 0 -116 49q-44 50 -44 125z"/>
<glyph glyph-name="quotesinglbase" horiz-adv-x="495" unicode="‚" d="M90 156q0 66 45 112q47 47 111 47q72 0 116 -50t44 -124q0 -227 -238 -374l-43 43q110 80 119 190q-64 0 -109 45q-45 47 -45 111z"/>
<glyph glyph-name="quotedblleft" horiz-adv-x="870" unicode="“" d="M473 1079q0 228 238 375l43 -43q-110 -80 -119 -190q65 0 108 -46q45 -45 45 -110q0 -67 -46 -113q-45 -47 -109 -47q-73 0 -116 49q-44 50 -44 125zM82 1079q0 229 237 375l43 -43q-108 -78 -118 -190q65 0 108 -46q45 -45 45 -110q0 -67 -46 -113q-45 -47 -109 -47 q-73 0 -116 49q-44 50 -44 125z"/>
<glyph glyph-name="quotedblright" horiz-adv-x="870" unicode="”" d="M473 1294q0 67 46 113q47 47 110 47q71 0 115 -50t44 -124q0 -230 -237 -375l-43 43q109 79 119 191q-64 0 -109 45t-45 110zM82 1294q0 67 46 113q47 47 110 47q71 0 115 -50t44 -124q0 -230 -237 -375l-43 43q109 79 119 191q-64 0 -109 45t-45 110z"/>
<glyph glyph-name="dagger" horiz-adv-x="778" unicode="†" d="M252 795h-219v217h219v422h270v-422h223v-217h-223v-1258h-270v1258z"/>
<glyph glyph-name="daggerdbl" horiz-adv-x="778" unicode="‡" d="M252 0h-219v217h219v578h-219v217h219v422h270v-422h223v-217h-223v-578h223v-217h-223v-463h-270v463z"/>
<glyph glyph-name="ellipsis" horiz-adv-x="1441" unicode="…" d="M1036 127q0 67 46 113q47 47 110 47q66 0 113 -47t47 -113q0 -63 -47 -110q-46 -46 -113 -46q-63 0 -110 45q-46 46 -46 111zM563 127q0 67 46 113q47 47 110 47q66 0 113 -47t47 -113q0 -63 -47 -110q-46 -46 -113 -46q-65 0 -111 45q-45 46 -45 111zM90 127 q0 67 46 113q47 47 110 47q66 0 113 -47t47 -113q0 -63 -47 -110q-46 -46 -113 -46q-64 0 -110 45q-46 46 -46 111z"/>
<glyph glyph-name="perthousand" horiz-adv-x="2043" unicode="‰" d="M1535 401q-42 -41 -42 -106q0 -67 42 -107q44 -41 105 -41t105 41q43 40 43 107q0 66 -43 106q-44 41 -105 41t-105 -41zM1403 64q-98 95 -98 231q0 137 98 230q97 93 237 93t237 -93q99 -93 99 -230t-99 -231q-97 -93 -237 -93t-237 93zM798 401q-42 -41 -42 -106 q0 -67 42 -107q44 -41 105 -41t105 41q43 40 43 107q0 66 -43 106q-44 41 -105 41t-105 -41zM665 64q-98 95 -98 231q0 137 98 230q99 93 238 93t237 -93q99 -93 99 -230t-99 -231q-98 -93 -237 -93t-238 93zM307 1245q-43 -40 -43 -106q0 -67 43 -107q44 -41 105 -41 t104 41q43 40 43 107q0 66 -43 106q-43 41 -104 41t-105 -41zM211 403l-68 129l961 498l67 -129zM174 908q-98 95 -98 231q0 137 98 230q99 93 238 93q140 0 237 -93q99 -93 99 -230t-99 -231q-97 -93 -237 -93q-139 0 -238 93z"/>
<glyph glyph-name="guilsinglleft" horiz-adv-x="673" unicode="‹" d="M549 225l-483 414v143l483 414h43v-250l-273 -235l273 -236v-250h-43z"/>
<glyph glyph-name="guilsinglright" horiz-adv-x="673" unicode="›" d="M125 225h-43v250l272 236l-272 235v250h43l483 -414v-143z"/>
<glyph glyph-name="fraction" horiz-adv-x="1314" unicode="⁄" d="M211 403l-68 129l961 498l67 -129z"/>
<glyph glyph-name="Euro" horiz-adv-x="1306" unicode="€" d="M178 479h-153l61 176h61q-2 26 -2 62q0 35 2 61h-122l61 176h92q66 231 248 369q182 139 438 139q204 0 332 -96l25 -279h-33q-78 66 -161 95.5t-185 29.5q-118 0 -217 -66t-150 -192h531l-62 -176h-506q-2 -26 -2 -61q0 -36 2 -62h568l-62 -176h-469q51 -126 150 -192 t217 -66q102 0 185 29.5t161 95.5h33l-25 -278q-128 -97 -332 -97q-255 0 -438 138q-182 140 -248 370z"/>
<glyph glyph-name="trademark" horiz-adv-x="1454" unicode="™" d="M680 717h-156l195 717h57l193 -430l192 430h58l194 -717h-156l-96 360l-172 -360h-41l-172 360zM217 1303h-176v131h508v-131h-176v-586h-156v586z"/>
<glyph glyph-name="partialdiff" horiz-adv-x="1193" unicode="∂" d="M356 455q0 -103 66 -170q66 -68 166 -68q99 0 165 68q66 67 66 170q0 101 -66 169q-65 68 -165 68t-166 -68t-66 -169zM78 455q0 207 133 340t328 133q151 0 252 -82q-18 181 -116 290q-97 109 -222 109q-71 0 -119 -13q-50 -14 -111 -42l-20 12l57 232q116 28 221 28 q126 0 232.5 -46t180.5 -128q111 -121 166.5 -302t55.5 -396q0 -293 -147 -456t-387 -163h-2q-146 0 -262 66.5t-178 176.5t-62 241z"/>
<glyph glyph-name="product" horiz-adv-x="1294" unicode="∏" d="M414 -463h-291v1897h1048v-1897h-290v1651h-467v-1651z"/>
<glyph glyph-name="summation" horiz-adv-x="1232" unicode="∑" d="M1161 0h-1089v102l436 656l-404 573v103h1016v-246h-561l297 -430l-350 -512h655v-246z"/>
<glyph glyph-name="minus" horiz-adv-x="1011" unicode="−" d="M934 643h-856v217h856v-217z"/>
<glyph glyph-name="radical" horiz-adv-x="1114" unicode="√" d="M231 569h-196v230h397l105 -412l274 1047h256l-381 -1434h-270z"/>
<glyph glyph-name="infinity" horiz-adv-x="1175" unicode="∞" d="M715 1176v-226q39 45 39 113q0 65 -39 113zM715 623v-365q90 66 90 182q0 117 -90 183zM559 1227v-328q10 -2 29 -2q14 0 28 2v328q-28 3 -57 0zM559 662v-443q10 -2 29 -2q14 0 28 2v443q-4 0 -15 1t-13 1q-4 0 -15.5 -1t-13.5 -1zM422 1063q0 -71 39 -113v226 q-39 -45 -39 -113zM371 440q0 -116 90 -182v365q-90 -66 -90 -183zM92 410q0 130 54 217t161 147q-83 68 -123.5 142.5t-40.5 168.5q0 128 87 227q86 99 231 134v143h98v-127h57v127h99v-143q143 -35 229 -134q88 -98 88 -227q0 -94 -40.5 -168.5t-123.5 -142.5 q107 -60 161 -147t54 -217q0 -133 -94 -257q-46 -61 -117.5 -105t-156.5 -62v-142h-99v127h-57v-127h-98v142q-115 24 -200 93q-84 68 -126.5 154t-42.5 177z"/>
<glyph glyph-name="approxequal" horiz-adv-x="989" unicode="≈" d="M111 739h-21l16 219q73 97 216 97h6q53 0 127 -27.5t140 -54.5t100 -27h5q101 0 179 94h20l-16 -219q-72 -96 -215 -96q-64 0 -138 27q-76 30 -137 55q-63 27 -104 27q-46 0 -87.5 -23t-90.5 -72zM111 350h-21l16 219q73 97 216 97q97 0 205 -55q110 -54 173 -54 q101 0 179 94h20l-16 -219q-72 -96 -215 -96h-8q-54 0 -129 27t-141 54t-97 27h-4q-84 0 -178 -94z"/>
<glyph glyph-name="notequal" horiz-adv-x="1036" unicode="≠" d="M225 356h-135v217h250l125 234h-375v217h490l82 152h231l-82 -152h135v-217h-250l-125 -234h375v-217h-489l-82 -151h-232z"/>
<glyph glyph-name="lessequal" horiz-adv-x="1036" unicode="≤" d="M803 348l-653 434v185l653 434h43v-246l-451 -281l451 -280v-246h-43zM946 0h-856v217h856v-217z"/>
<glyph glyph-name="greaterequal" horiz-adv-x="1036" unicode="≥" d="M193 348h-43v246l450 280l-450 281v246h43l653 -434v-185zM946 0h-856v217h856v-217z"/>
<glyph glyph-name="lozenge" horiz-adv-x="1191" unicode="◊" d="M596 1198l-281 -481l281 -484l281 484zM451 0l-426 717l426 717h290l426 -717l-426 -717h-290z"/>
</font>
</defs>
</svg>
