<?xml version="1.0" encoding="UTF-8" standalone="no"?>
<!DOCTYPE svg  PUBLIC '-//W3C//DTD SVG 1.1//EN'  'http://www.w3.org/Graphics/SVG/1.1/DTD/svg11.dtd'>
<svg xmlns="http://www.w3.org/2000/svg">
<defs>
<font id="Value-Regular" horiz-adv-x="1216">
<font-face underline-position="-102" font-weight="400" descent="-410" panose-1="2 11 5 3 3 2 4 2 2 3" units-per-em="2048" unicode-range="U+0020-25CA" bbox="-94 -492 2220 1855" x-height="1012" underline-thickness="102" font-family="Value" ascent="1638" cap-height="1434"/>
<missing-glyph horiz-adv-x="2048"/>
<glyph glyph-name=".notdef" horiz-adv-x="2048"/>
<glyph glyph-name=".null" horiz-adv-x="0"/>
<glyph glyph-name="nonmarkingreturn" horiz-adv-x="682"/>
<glyph glyph-name="space" horiz-adv-x="645" unicode=" "/>
<glyph glyph-name="exclam" horiz-adv-x="520" unicode="!" d="M350 410h-164v1024h164v-1024zM179 24q-36 36 -36 89t36 89q37 36 89 36t88 -36q37 -36 37 -89t-37 -89q-36 -36 -88 -36t-89 36z"/>
<glyph glyph-name="quotedbl" horiz-adv-x="692" unicode='&quot;' d="M455 983l-45 451h200l-45 -451h-110zM127 983l-45 451h201l-45 -451h-111z"/>
<glyph glyph-name="numbersign" horiz-adv-x="1398" unicode="#" d="M553 887l-64 -340h357l63 340h-356zM311 408h-250l31 139h246l63 340h-258l31 139h252l76 408h151l-75 -408h358l76 408h151l-76 -408h250l-30 -139h-246l-64 -340h258l-30 -139h-252l-76 -408h-152l76 408h-358l-76 -408h-151z"/>
<glyph glyph-name="dollar" horiz-adv-x="1060" unicode="$" d="M600 639v-504q89 20 140 84t51 158q0 82 -47 144.5t-144 117.5zM291 1118q0 -69 47 -125.5t143 -111.5v430q-85 -12 -138 -66q-52 -52 -52 -127zM109 135l12 213h20q45 -56 90 -100q46 -43 110 -77q67 -34 140 -42v567q-161 69 -259 175q-95 106 -95 241q0 145 100 238 q100 94 254 108v131h119v-131q158 -17 268 -110l9 -197h-27q-119 131 -250 158v-486q375 -161 375 -422q0 -163 -105 -282q-103 -116 -270 -142v-133h-119v129q-221 11 -372 162z"/>
<glyph glyph-name="percent" horiz-adv-x="1318" unicode="%" d="M756 443q-58 -55 -58 -148q0 -92 58 -149q59 -56 143 -56t143 56q58 57 58 149q0 93 -58 148q-59 57 -143 57q-85 0 -143 -57zM663 64q-96 94 -96 231t96 230q97 93 236 93t235 -93q97 -93 97 -230t-97 -231q-96 -93 -235 -93t-236 93zM265 1287q-58 -55 -58 -148 q0 -92 58 -149q59 -56 143 -56t142 56q58 57 58 149q0 93 -58 148q-58 56 -142 56t-143 -56zM190 418l-51 100l961 498l51 -101zM172 908q-96 94 -96 231t96 230q97 93 236 93t235 -93t96 -230t-96 -231q-96 -93 -235 -93t-236 93z"/>
<glyph glyph-name="ampersand" horiz-adv-x="1296" unicode="&amp;" d="M416 1120q0 -95 119 -241q151 66 207 128q57 61 57 136q0 73 -54 122q-53 50 -137 50t-138 -54t-54 -141zM262 395q0 -121 74 -195q74 -73 194 -73q154 0 299 139l-350 422q-108 -55 -162.5 -131t-54.5 -162zM78 387q0 122 76.5 231.5t226.5 188.5q-137 173 -137 313 q0 108 55 187q53 78 134 116.5t175 38.5q148 0 252 -89q103 -88 103 -216q0 -239 -332 -397l303 -369q91 128 149 299h17l49 -201q-51 -126 -117 -219l223 -270h-206l-123 147q-185 -176 -418 -176q-186 0 -308 116q-122 117 -122 300z"/>
<glyph glyph-name="quotesingle" horiz-adv-x="364" unicode="&apos;" d="M127 983l-45 451h201l-45 -451h-111z"/>
<glyph glyph-name="parenleft" horiz-adv-x="595" unicode="(" d="M414 1434h141q-289 -481 -289 -949q0 -467 289 -948h-141q-138 183 -225 421t-87 527t87 527q87 239 225 422z"/>
<glyph glyph-name="parenright" horiz-adv-x="595" unicode=")" d="M182 -463h-141q289 481 289 948q0 468 -289 949h141q138 -183 225 -422q87 -238 87 -527t-87 -527t-225 -421z"/>
<glyph glyph-name="asterisk" horiz-adv-x="774" unicode="*" d="M160 920l-70 118l4 19l242 73l-242 74l-4 19l70 118l16 7l186 -172l-57 245l12 13h140l12 -13l-57 -245l186 172l16 -7l70 -118l-4 -19l-242 -74l242 -73l4 -19l-70 -118l-16 -7l-186 172l57 -245l-12 -13h-140l-12 13l57 245l-186 -172z"/>
<glyph glyph-name="plus" horiz-adv-x="1011" unicode="+" d="M438 684h-340v135h340v340h135v-340h340v-135h-340v-340h-135v340z"/>
<glyph glyph-name="comma" horiz-adv-x="413" unicode="," d="M90 100q0 51 33 86t82 35q51 0 85 -36t34 -87q0 -104 -55 -186.5t-148 -132.5l-15 39q93 61 99 170q-46 0 -81 32q-34 31 -34 80z"/>
<glyph glyph-name="hyphen" horiz-adv-x="802" unicode="-" d="M717 582h-631v135h631v-135z"/>
<glyph glyph-name="period" horiz-adv-x="413" unicode="." d="M90 102q0 50 34 84q35 35 81 35q49 0 84 -35t35 -84q0 -46 -35 -81q-35 -33 -84 -33q-47 0 -81 33q-34 34 -34 81z"/>
<glyph glyph-name="slash" horiz-adv-x="1054" unicode="/" d="M207 0h-176l817 1434h176z"/>
<glyph glyph-name="zero" horiz-adv-x="1425" unicode="0" d="M406 1148q-119 -158 -119 -431q0 -272 119 -432q119 -158 307 -158t307 158q119 160 119 432q0 273 -119 431q-118 159 -307 159t-307 -159zM713 1462q138 0 254 -55.5t194 -156.5q162 -206 162 -533q0 -217 -72.5 -384.5t-211.5 -264.5t-326 -97t-326 97t-213 266 q-72 169 -72 383t72 382q73 168 213 266q139 97 326 97z"/>
<glyph glyph-name="one" horiz-adv-x="471" unicode="1" d="M328 0h-185v1337l142 97h43v-1434z"/>
<glyph glyph-name="two" horiz-adv-x="1130" unicode="2" d="M1026 0h-948v20l561 685q83 103 116 179q36 80 36 171q0 117 -78 184q-77 68 -191 68q-106 0 -204 -60q-96 -59 -158 -160h-19l13 213q73 75 172 118q100 44 200 44q195 0 318 -114t123 -283q0 -112 -48.5 -215.5t-144.5 -222.5l-387 -471h639v-156z"/>
<glyph glyph-name="three" horiz-adv-x="1161" unicode="3" d="M682 1278h-563v156h864v-21l-367 -473q179 -23 302 -131q64 -56 99.5 -141t35.5 -191q0 -227 -146 -367q-145 -139 -381 -139q-109 0 -195 26q-83 25 -167 71l-23 194h17q172 -135 377 -135q151 0 246 93q96 94 96 243q0 106 -52 185q-51 77 -131 116t-178 39 q-74 0 -162 -21l-18 37z"/>
<glyph glyph-name="four" horiz-adv-x="1124" unicode="4" d="M698 1016l-407 -504h407v504zM698 356h-659v82l801 996h43v-922h159v-156h-159v-356h-185v356z"/>
<glyph glyph-name="five" horiz-adv-x="1134" unicode="5" d="M152 57l-39 203h16q178 -133 387 -133q139 0 242 88q51 44 80.5 113.5t29.5 152.5q0 169 -101 261t-251 92q-174 0 -358 -129l-35 6l88 723h764v-156h-629l-51 -373q131 64 270 64h10q201 0 335.5 -135t133.5 -353q0 -225 -150 -368q-149 -142 -380 -142q-97 0 -180 20 q-82 20 -182 66z"/>
<glyph glyph-name="six" d="M389 689q-90 -93 -90 -234t90 -235q91 -93 234 -93t231 93q88 92 88 235t-88 234q-88 93 -231 93t-234 -93zM98 647q0 128 24 247t74 222.5t121.5 180t172.5 121t221 44.5q144 0 260 -65l18 -185h-24q-68 53 -126.5 74t-127.5 21q-183 0 -296 -141t-132 -408 q73 85 175 128q105 44 204 44q210 0 337 -132q127 -130 127 -343q0 -128 -66 -239q-65 -110 -182 -178q-115 -67 -253 -67q-112 0 -207.5 42t-161.5 118q-158 182 -158 516z" unicode="6"/>
<glyph glyph-name="seven" horiz-adv-x="1095" unicode="7" d="M819 1278h-708v156h952v-21l-711 -1413h-184z"/>
<glyph glyph-name="eight" horiz-adv-x="1142" unicode="8" d="M571 856q105 0 175 64q71 65 71 165t-71 165t-175 65t-175 -65q-70 -64 -70 -165t70 -165t175 -64zM364 628q-85 -79 -85 -210q0 -130 85 -211q86 -80 207 -80t207 80q86 81 86 211t-86 210q-86 81 -207 81t-207 -81zM102 410q0 128 64 225q65 99 166 153 q-170 116 -170 297q0 163 114 269q115 108 295 108q179 0 295 -108q115 -108 115 -269q0 -181 -170 -297q102 -54 165 -153q64 -97 64 -225q0 -159 -117 -295q-58 -66 -150.5 -105t-201.5 -39t-201.5 39t-150.5 105q-117 136 -117 295z"/>
<glyph glyph-name="nine" d="M362 1214q-88 -92 -88 -235t88 -235q88 -93 232 -93q143 0 233 93q91 94 91 235q0 142 -91 234q-90 94 -233 94q-144 0 -232 -93zM90 979q0 128 65 238q64 109 181 178q115 67 256 67q113 0 210 -42t163 -117q153 -175 153 -517q0 -128 -24 -246.5t-74 -222t-121 -180.5 t-172 -121.5t-221 -44.5q-142 0 -260 66l-19 184h25q72 -55 128 -74q60 -20 126 -20q184 0 296 141t132 408q-142 -172 -379 -172q-205 0 -335 132q-130 133 -130 343z" unicode="9"/>
<glyph glyph-name="colon" horiz-adv-x="413" unicode=":" d="M90 856q0 50 34 84q35 35 81 35q49 0 84 -35t35 -84q0 -46 -35 -81q-34 -34 -84 -34q-47 0 -81 34t-34 81zM90 102q0 50 34 84q35 35 81 35q49 0 84 -35t35 -84q0 -46 -35 -81q-35 -33 -84 -33q-47 0 -81 33q-34 34 -34 81z"/>
<glyph glyph-name="semicolon" horiz-adv-x="413" unicode=";" d="M90 856q0 50 34 84q35 35 81 35q49 0 84 -35t35 -84q0 -46 -35 -81q-34 -34 -84 -34q-47 0 -81 34t-34 81zM90 100q0 51 33 86t82 35q51 0 85 -36t34 -87q0 -104 -55 -186.5t-148 -132.5l-15 39q93 61 99 170q-46 0 -81 32q-34 31 -34 80z"/>
<glyph glyph-name="less" horiz-adv-x="835" unicode="&lt;" d="M717 201l-619 438v143l619 439h20v-166l-489 -344l489 -344v-166h-20z"/>
<glyph glyph-name="equal" horiz-adv-x="1011" unicode="=" d="M913 848h-815v135h815v-135zM913 397h-815v135h815v-135z"/>
<glyph glyph-name="greater" horiz-adv-x="835" unicode="&gt;" d="M119 201h-21v166l490 344l-490 344v166h21l618 -439v-143z"/>
<glyph glyph-name="question" horiz-adv-x="999" unicode="?" d="M366 24q-36 36 -36 89t36 89t89 36t89 -36t36 -89t-36 -89t-89 -36t-89 36zM131 1163h-18l12 176q63 51 151 86q89 37 177 37q173 0 282 -91q111 -90 111 -241q0 -162 -113 -286q-15 -16 -54 -57.5t-58 -64.5t-45 -60t-37 -73t-11 -75v-88h-163v63q0 70 23 134 q15 40 40.5 79t39 55.5t55.5 64.5l77 86q82 92 82 206q0 96 -66 155q-64 58 -172 58q-92 0 -178 -50q-86 -49 -135 -114z"/>
<glyph glyph-name="at" horiz-adv-x="1806" unicode="@" d="M874 385q110 0 177 75q69 75 69 193q0 119 -69 194q-67 75 -177 75q-108 0 -176 -75q-67 -74 -67 -194t67 -194q68 -74 176 -74zM102 645q0 172 65 326q65 153 177 260q112 108 260 169q151 62 314 62q165 0 312 -59q146 -58 250 -159t164 -243q60 -143 60 -303 q0 -202 -93 -317t-227 -115q-84 0 -144 43t-87 117q-124 -160 -299 -160q-142 0 -249 101q-52 50 -82.5 125t-30.5 161q0 87 31 161.5t84 123.5q111 102 259 102q69 0 137 -31.5t111 -82.5v94h137v-422q0 -105 37.5 -159t106.5 -54t119 84q51 84 51 213q0 251 -135 412 q-93 113 -227.5 173t-284.5 60q-123 0 -240 -46t-211 -131q-93 -83 -152 -216q-57 -130 -57 -289q0 -156 53.5 -288t147.5 -218q93 -85 211.5 -131.5t247.5 -46.5q210 0 374 121h19l-8 -152q-181 -104 -385 -104q-172 0 -324.5 61t-262.5 171q-106 108 -168 260 q-61 150 -61 327z"/>
<glyph glyph-name="A" horiz-adv-x="1368" unicode="A" d="M684 1090l-274 -644h548zM219 0h-184l622 1434h54l622 -1434h-184l-123 291h-684z"/>
<glyph glyph-name="B" horiz-adv-x="1210" unicode="B" d="M328 1278v-463h297q127 0 198 63q72 64 72 169q0 106 -72 168.5t-198 62.5h-297zM328 659v-503h329q143 0 223 68q81 69 81 184q0 116 -81 183q-80 68 -223 68h-329zM664 0h-521v1434h465q214 0 338 -100q125 -99 125 -255q0 -224 -209 -325q130 -41 206 -130 q77 -91 77 -218q0 -99 -41 -179t-112 -129q-141 -98 -328 -98z"/>
<glyph glyph-name="C" horiz-adv-x="1359" unicode="C" d="M817 1462q237 0 418 -123l12 -202h-20q-185 170 -418 170q-108 0 -206 -40.5t-174 -115.5q-76 -76 -119.5 -188.5t-43.5 -245.5t43.5 -245.5t119.5 -188.5q76 -75 174 -115.5t206 -40.5q233 0 418 170h20l-12 -203q-181 -123 -424 -123q-149 0 -283.5 55.5t-234.5 153.5 q-97 97 -154 237q-57 139 -57 300q0 158 57 297.5t157 237.5q101 99 234 154q138 56 287 56z"/>
<glyph glyph-name="D" horiz-adv-x="1280" unicode="D" d="M328 1278v-1122h139q232 0 387 144q76 71 118 179t42 238q0 131 -42 238.5t-118 177.5q-154 145 -387 145h-139zM463 0h-320v1434h320q146 0 279 -49t235 -140q101 -90 161 -227q60 -136 60 -301t-60 -301q-60 -137 -161 -227q-102 -91 -235 -140t-279 -49z"/>
<glyph glyph-name="E" horiz-adv-x="1062" unicode="E" d="M971 0h-828v1434h820v-156h-635v-463h612v-156h-612v-503h643v-156z"/>
<glyph glyph-name="F" horiz-adv-x="1105" unicode="F" d="M328 0h-185v1434h852v-156h-667v-514h645v-156h-645v-608z"/>
<glyph glyph-name="G" horiz-adv-x="1499" unicode="G" d="M836 1462q276 0 458 -133l13 -188h-25q-114 91 -218 129q-102 37 -226 37q-223 0 -391 -146q-84 -73 -132.5 -188.5t-48.5 -255.5t45.5 -255.5t125.5 -188.5q160 -146 376 -146q227 0 391 158v362h-454v156h639v-576q-256 -256 -582 -256q-146 0 -279 54t-233 151 q-97 98 -156 237q-57 141 -57 304t60 303q62 143 164 237q104 97 241.5 151t288.5 54z"/>
<glyph glyph-name="H" horiz-adv-x="1331" unicode="H" d="M328 0h-185v1434h185v-600h676v600h184v-1434h-184v678h-676v-678z"/>
<glyph glyph-name="I" horiz-adv-x="471" unicode="I" d="M328 0h-185v1434h185v-1434z"/>
<glyph glyph-name="J" horiz-adv-x="774" unicode="J" d="M111 0l-19 174h27q89 -47 170 -47q168 0 168 190v1117h184v-1096q0 -166 -89 -267q-88 -100 -249 -100q-90 0 -192 29z"/>
<glyph glyph-name="K" horiz-adv-x="1161" unicode="K" d="M328 0h-185v1434h185v-699l542 699h215l-561 -705l611 -729h-215l-592 707v-707z"/>
<glyph glyph-name="L" horiz-adv-x="1138" unicode="L" d="M1065 0h-922v1434h185v-1278h737v-156z"/>
<glyph glyph-name="M" horiz-adv-x="1789" unicode="M" d="M229 0h-184l373 1434h61l416 -1049l416 1049h61l373 -1434h-184l-248 961l-398 -961h-41l-397 961z"/>
<glyph glyph-name="N" horiz-adv-x="1382" unicode="N" d="M328 0h-185v1434h70l842 -1008v1008h184v-1434h-70l-841 1012v-1012z"/>
<glyph glyph-name="O" horiz-adv-x="1658" unicode="O" d="M829 127q157 0 284 69q127 70 203 206q77 137 77 315t-77 315q-75 134 -201.5 204.5t-285.5 70.5q-237 0 -399 -156q-77 -76 -120.5 -188.5t-43.5 -245.5t43.5 -245.5t120.5 -188.5q162 -156 399 -156zM82 717q0 159 58 296q58 139 158 237q102 100 238 155 q138 57 293 57t293 -57q136 -55 238 -155q99 -96 158 -237q59 -139 59 -296q0 -210 -100 -382q-99 -170 -270 -268q-171 -96 -378 -96t-378 96q-171 98 -270 268q-99 173 -99 382z"/>
<glyph glyph-name="P" horiz-adv-x="1048" unicode="P" d="M328 1278v-557h182q142 0 228 71q87 70 87 207t-87 207q-86 72 -228 72h-182zM328 0h-185v1434h365q117 0 213.5 -35t160.5 -97q128 -123 128 -303q0 -178 -128 -303q-64 -61 -160.5 -96t-213.5 -35h-180v-565z"/>
<glyph glyph-name="Q" horiz-adv-x="1658" unicode="Q" d="M829 127q200 0 345 109l-193 194l115 115l190 -193q107 157 107 365q0 178 -77 315q-75 134 -201.5 204.5t-285.5 70.5q-237 0 -399 -156q-77 -76 -120.5 -188.5t-43.5 -245.5t43.5 -245.5t120.5 -188.5q162 -156 399 -156zM82 717q0 159 58 296q58 139 158 237 q102 100 238 155q138 57 293 57t293 -57q136 -55 238 -155q99 -96 158 -237q59 -139 59 -296q0 -285 -172 -484l192 -192l-112 -117l-197 195q-199 -148 -459 -148q-207 0 -378 96q-171 98 -270 268q-99 173 -99 382z"/>
<glyph glyph-name="R" horiz-adv-x="1124" unicode="R" d="M328 1278v-492h198q141 0 217 63.5t76 182.5t-76 182.5t-217 63.5h-198zM328 0h-185v1434h379q214 0 347 -108q135 -108 135 -294q0 -143 -88 -239.5t-220 -137.5l396 -655h-201l-381 631h-182v-631z"/>
<glyph glyph-name="S" horiz-adv-x="1060" unicode="S" d="M109 135l12 213h20q77 -98 168 -160q91 -61 209 -61q125 0 199 68t74 182q0 113 -87 188q-71 63 -219 129q-165 71 -261 176q-97 106 -97 242q0 158 118 254t290 96q199 0 333 -114l9 -197h-27q-140 164 -322 164q-103 0 -171 -56q-66 -55 -66 -141q0 -88 75.5 -157.5 t231.5 -135.5q187 -79 282 -183t95 -241q0 -184 -130 -307q-129 -123 -327 -123q-240 0 -409 164z"/>
<glyph glyph-name="T" horiz-adv-x="1101" unicode="T" d="M459 1278h-377v156h938v-156h-377v-1278h-184v1278z"/>
<glyph glyph-name="U" horiz-adv-x="1306" unicode="U" d="M123 535v899h184v-930q0 -96 29.5 -171.5t80.5 -119.5q103 -86 236 -86q134 0 235 86q52 44 81.5 119.5t29.5 171.5v930h185v-899q0 -267 -146 -416q-145 -148 -385 -148q-239 0 -384 147q-146 149 -146 417z"/>
<glyph glyph-name="V" horiz-adv-x="1400" unicode="V" d="M662 0l-631 1434h184l485 -1125l486 1125h184l-631 -1434h-77z"/>
<glyph glyph-name="W" horiz-adv-x="1933" unicode="W" d="M524 0l-479 1434h184l322 -1012l387 1012h57l387 -1012l322 1012h184l-479 -1434h-45l-397 1051l-398 -1051h-45z"/>
<glyph glyph-name="X" horiz-adv-x="1206" unicode="X" d="M233 0h-184l471 774l-395 660h184l299 -512l305 512h185l-400 -658l459 -776h-184l-367 625z"/>
<glyph glyph-name="Y" horiz-adv-x="1200" unicode="Y" d="M508 623l-479 811h196l375 -652l375 652h196l-479 -811v-623h-184v623z"/>
<glyph glyph-name="Z" horiz-adv-x="1218" unicode="Z" d="M1147 0h-1090v20l779 1258h-717v156h995v-21l-786 -1257h819v-156z"/>
<glyph glyph-name="bracketleft" horiz-adv-x="559" unicode="[" d="M487 -463h-364v1897h364v-156h-200v-1585h200v-156z"/>
<glyph glyph-name="backslash" horiz-adv-x="1054" unicode="\" d="M848 0l-817 1434h176l817 -1434h-176z"/>
<glyph glyph-name="bracketright" horiz-adv-x="559" unicode="]" d="M72 -463v156h200v1585h-200v156h364v-1897h-364z"/>
<glyph glyph-name="asciicircum" horiz-adv-x="1032" unicode="^" d="M223 811h-151v20l391 603h106l392 -603v-20h-152l-293 446z"/>
<glyph glyph-name="underscore" horiz-adv-x="1028" unicode="_" d="M45 -135v135h938v-135h-938z"/>
<glyph glyph-name="grave" horiz-adv-x="577" unicode="`" d="M365 1153l-291 281h241l189 -281h-139z"/>
<glyph glyph-name="a" horiz-adv-x="1255" unicode="a" d="M342 781q-100 -112 -100 -275t100 -275t264 -112t264 112q101 113 101 275t-101 275q-100 112 -264 112t-264 -112zM606 1040q108 0 201.5 -42.5t153.5 -112.5v127h163v-1012h-163v127q-60 -70 -153.5 -113t-201.5 -43q-148 0 -270 72q-120 71 -190 194q-68 124 -68 269 q0 146 68 268q70 124 190 194q122 72 270 72z"/>
<glyph glyph-name="b" horiz-adv-x="1263" unicode="b" d="M386 781q-101 -113 -101 -275t101 -275q102 -112 267 -112t267 112q102 113 102 275t-102 275q-102 112 -267 112t-267 -112zM295 0h-164v1475h164v-611q65 73 165 124q98 52 216 52q103 0 196.5 -39t163.5 -110q70 -70 110 -170.5t40 -214.5q0 -155 -70 -277 q-69 -123 -187.5 -190.5t-262.5 -67.5q-112 0 -207.5 45t-163.5 121v-137z"/>
<glyph glyph-name="c" horiz-adv-x="1011" unicode="c" d="M606 1040q178 0 293 -90l6 -164h-18q-67 57 -131 82q-63 25 -150 25q-161 0 -263 -109q-101 -110 -101 -278q0 -172 97 -279q97 -108 267 -108q84 0 147.5 24.5t129.5 81.5h18l-6 -164q-111 -90 -289 -90q-146 0 -264 63q-119 65 -192 187q-72 125 -72 285t74 284 q74 122 192.5 186t261.5 64z"/>
<glyph glyph-name="d" horiz-adv-x="1263" unicode="d" d="M343 781q-101 -113 -101 -275t101 -275q102 -112 267 -112t267 112q102 113 102 275t-102 275q-102 112 -267 112t-267 -112zM78 506q0 228 153 381t379 153q114 0 207 -46q97 -46 152 -115v596h164v-1475h-164v137q-145 -166 -371 -166q-218 0 -369 154t-151 381z"/>
<glyph glyph-name="e" horiz-adv-x="1157" unicode="e" d="M250 598h672q-15 136 -108 222q-92 85 -232 85q-118 0 -212 -81q-94 -79 -120 -226zM78 506q0 110 40 210.5t109 171.5q70 71 163 111.5t192 40.5q216 0 352 -136q137 -135 137 -359v-82h-829q9 -108 65 -188q109 -156 297 -156q108 0 193 36q88 38 186 128h16l-6 -179 q-92 -68 -184 -100.5t-203 -32.5q-148 0 -270 71q-120 70 -190 193q-68 124 -68 271z"/>
<glyph glyph-name="f" horiz-adv-x="708" unicode="f" d="M223 864h-133v148h133v151q0 127 81 213t196 86q91 0 170 -43l6 -157h-17q-25 25 -61.5 39t-69.5 14q-66 0 -103.5 -42.5t-37.5 -119.5v-141h180v-148h-180v-864h-164v864z"/>
<glyph glyph-name="g" horiz-adv-x="1241" unicode="g" d="M281 702q-39 -82 -39 -182q0 -215 162 -319q84 -54 198 -54q113 0 198 53q84 54 123 137q40 83 40 183q0 216 -163 319q-84 54 -198 54t-198 -54t-123 -137zM78 520q0 115 42.5 214.5t115.5 166.5q152 139 360 139q109 0 202 -41.5t148 -111.5v125h164v-920 q0 -304 -141 -443q-141 -141 -396 -141q-170 0 -319 89l-6 163h26q72 -52 144 -77q74 -27 178 -27q154 0 252 90t98 258v156q-62 -78 -156 -119t-204 -41q-208 0 -356 138q-71 67 -111.5 166.5t-40.5 215.5z"/>
<glyph glyph-name="h" horiz-adv-x="1136" unicode="h" d="M295 0h-164v1475h164v-619q56 80 154 132q100 52 204 52q163 0 264 -96q101 -95 101 -258v-686h-164v651q0 112 -71 177t-181 65q-127 0 -217 -95q-90 -94 -90 -235v-563z"/>
<glyph glyph-name="i" horiz-adv-x="446" unicode="i" d="M305 0h-164v1012h164v-1012zM142 1238q-33 33 -33 81t33 81q34 34 81 34t81 -34t34 -81t-34 -81t-81 -34t-81 34z"/>
<glyph glyph-name="j" horiz-adv-x="460" unicode="j" d="M125 1317q0 47 33 82q35 35 80 35q46 0 81 -35t35 -82q0 -45 -35 -80q-35 -33 -81 -33t-80 33q-33 35 -33 80zM-78 -457l-16 152h20q58 -39 109 -39q123 0 123 147v1209h164v-1178q0 -158 -67.5 -242t-195.5 -84q-81 0 -137 35z"/>
<glyph glyph-name="k" horiz-adv-x="909" unicode="k" d="M295 0h-164v1475h164v-928l395 465h174l-405 -475l415 -537h-176l-403 518v-518z"/>
<glyph glyph-name="l" horiz-adv-x="425" unicode="l" d="M295 0h-164v1475h164v-1475z"/>
<glyph glyph-name="m" horiz-adv-x="1579" unicode="m" d="M295 0h-164v1012h164v-125q46 71 123.5 112t167.5 41q187 0 260 -166q46 72 133 119q88 47 178 47q148 0 225.5 -84.5t77.5 -236.5v-719h-164v696q0 92 -52.5 144.5t-143.5 52.5t-154 -69t-63 -177v-647h-164v694q0 96 -58 147q-56 52 -141 52q-101 0 -163 -80t-62 -217 v-596z"/>
<glyph glyph-name="n" horiz-adv-x="1120" unicode="n" d="M295 0h-164v1012h164v-152q57 81 150 130q95 50 200 50q160 0 257 -96q99 -96 99 -258v-686h-163v651q0 113 -67 177q-68 65 -177 65q-126 0 -213 -95q-86 -95 -86 -235v-563z"/>
<glyph glyph-name="o" d="M608 119q160 0 263 108q104 109 104 279t-104 279q-103 108 -263 108q-158 0 -262 -108q-104 -109 -104 -279t104 -279q103 -108 262 -108zM230 122q-152 152 -152 384q0 231 152 383q152 151 378 151t378 -151q153 -151 153 -383t-153 -384q-152 -151 -378 -151 t-378 151z" unicode="o"/>
<glyph glyph-name="p" horiz-adv-x="1263" unicode="p" d="M390 780q-105 -112 -105 -274t105 -274q105 -113 263 -113t263 113q106 113 106 274t-106 273q-105 114 -263 114t-263 -113zM295 -463h-164v1475h164v-152q69 77 164 128q95 52 211 52q219 0 367 -151q149 -151 149 -383q0 -114 -40 -215t-110 -172q-70 -70 -163.5 -109 t-196.5 -39q-123 0 -222 49t-159 127v-610z"/>
<glyph glyph-name="q" horiz-adv-x="1263" unicode="q" d="M347 780q-105 -112 -105 -274t105 -274q105 -113 263 -113t263 113q106 113 106 274t-106 273q-105 114 -263 114t-263 -113zM78 506q0 155 70 277q70 121 190 190q119 67 264 67q117 0 216 -51q97 -49 151 -121v144h164v-1475h-164v610q-69 -82 -166.5 -129t-214.5 -47 q-103 0 -196.5 39t-163.5 109q-70 71 -110 172t-40 215z"/>
<glyph glyph-name="r" horiz-adv-x="806" unicode="r" d="M295 0h-164v1012h164v-148q50 86 128 131q79 45 161 45q90 0 155 -47l11 -166h-19q-69 66 -172 66q-100 0 -178 -71q-86 -78 -86 -244v-578z"/>
<glyph glyph-name="s" horiz-adv-x="864" unicode="s" d="M82 74l39 155h12q142 -110 289 -110q95 0 150 41t55 110q0 72 -56 113q-54 40 -180 82q-119 40 -195 104q-87 76 -87 199q0 111 95 191q96 81 234 81q151 0 281 -77l6 -156h-14q-128 98 -273 98q-80 0 -131 -35.5t-51 -97.5q0 -67 58 -107q62 -43 182 -85 q140 -48 215 -113q80 -68 80 -188q0 -132 -109 -220t-262 -88q-181 0 -338 103z"/>
<glyph glyph-name="t" horiz-adv-x="763" unicode="t" d="M229 864h-194v148h194v213l164 78v-291h289v-148h-289v-620q0 -62 39 -94q40 -31 92 -31q72 0 152 59h18l-12 -155q-60 -31 -95 -40q-39 -12 -95 -12q-120 0 -192 73q-71 74 -71 204v616z"/>
<glyph glyph-name="u" horiz-adv-x="1120" unicode="u" d="M119 326v686h164v-652q0 -112 66 -177q67 -64 177 -64q127 0 212 94q87 94 87 236v563h164v-1012h-164v152q-56 -80 -150 -131q-95 -50 -200 -50q-159 0 -258 96q-98 98 -98 259z"/>
<glyph glyph-name="v" horiz-adv-x="1064" unicode="v" d="M520 0l-493 1012h184l321 -688l322 688h184l-493 -1012h-25z"/>
<glyph glyph-name="w" horiz-adv-x="1568" unicode="w" d="M473 0l-440 1012h172l287 -676l268 676h49l268 -676l287 676h172l-440 -1012h-45l-267 692l-266 -692h-45z"/>
<glyph glyph-name="x" horiz-adv-x="948" unicode="x" d="M231 0h-180l338 522l-317 490h182l225 -367l223 367h177l-306 -486l324 -526h-176l-246 393z"/>
<glyph glyph-name="y" horiz-adv-x="1021" unicode="y" d="M410 182l-404 830h184l306 -650l313 650h166l-713 -1475h-164z"/>
<glyph glyph-name="z" horiz-adv-x="976" unicode="z" d="M889 0h-817v20l546 844h-507v148h763v-21l-540 -844h555v-147z"/>
<glyph glyph-name="braceleft" horiz-adv-x="647" unicode="{" d="M104 408h-43v155h43q55 0 81 26t26 87v526q0 108 61.5 170t173.5 62h129v-156h-112q-88 0 -88 -102v-514q0 -146 -135 -177q135 -32 135 -176v-514q0 -102 88 -102h112v-156h-129q-112 0 -173.5 62t-61.5 170v526q0 61 -26 87t-81 26z"/>
<glyph glyph-name="bar" horiz-adv-x="409" unicode="|" d="M287 -463h-164v1897h164v-1897z"/>
<glyph glyph-name="braceright" horiz-adv-x="647" unicode="}" d="M72 -463v156h112q88 0 88 102v514q0 145 136 176q-136 31 -136 177v514q0 102 -88 102h-112v156h129q112 0 173.5 -62t61.5 -170v-526q0 -61 26 -87t81 -26h43v-155h-43q-55 0 -81 -26t-26 -87v-526q0 -108 -61.5 -170t-173.5 -62h-129z"/>
<glyph glyph-name="asciitilde" horiz-adv-x="983" unicode="~" d="M111 584h-13l13 149q86 86 194 86q52 0 107 -18t95 -43q106 -60 183 -60q94 0 182 88h13l-13 -149q-86 -86 -194 -86q-97 0 -203 60q-96 61 -182 61q-94 0 -182 -88z"/>
<glyph glyph-name="uni00A0" horiz-adv-x="645" unicode=" "/>
<glyph glyph-name="exclamdown" horiz-adv-x="520" unicode="¡" d="M350 -422h-164v1024h164v-1024zM179 810q-36 36 -36 89t36 89q37 36 89 36t88 -36q37 -36 37 -89t-37 -89q-36 -36 -88 -36t-89 36z"/>
<glyph glyph-name="cent" horiz-adv-x="991" unicode="¢" d="M242 506q0 -151 77 -255q77 -103 216 -126v762q-133 -25 -213 -129t-80 -252zM78 506q0 219 130 361q132 144 327 169v254h118v-252q145 -9 246 -88l6 -164h-18q-57 51 -111 75t-123 30v-770q123 10 230 104h18l-6 -164q-106 -82 -242 -88v-252h-118v254 q-198 25 -327.5 167t-129.5 364z"/>
<glyph glyph-name="sterling" horiz-adv-x="1062" unicode="£" d="M131 696h-141v135h151l9 89q19 245 155 393.5t329 148.5h9q158 0 291 -80l20 -188l-24 -6q-151 119 -287 119q-121 0 -211 -93q-89 -93 -108 -286l-11 -97h377v-135h-389l-53 -540h743v-156h-919z"/>
<glyph glyph-name="currency" horiz-adv-x="1187" unicode="¤" d="M391 923q-84 -81 -84 -206t84 -206q85 -81 203 -81t202 81q85 81 85 206t-85 206q-84 81 -202 81t-203 -81zM215 238l-100 100l125 125q-88 115 -88 254t88 254l-125 125l100 100l129 -127q113 74 250 74t250 -74l129 127l100 -100l-125 -125q88 -115 88 -254t-88 -254 l125 -125l-100 -100l-129 127q-113 -74 -250 -74t-250 74z"/>
<glyph glyph-name="yen" horiz-adv-x="1200" unicode="¥" d="M428 758l-399 676h196l375 -652l375 652h196l-399 -676h236v-135h-316v-131h316v-136h-316v-356h-184v356h-315v136h315v131h-315v135h235z"/>
<glyph glyph-name="brokenbar" horiz-adv-x="409" unicode="¦" d="M287 614h-164v820h164v-820zM123 -463v819h164v-819h-164z"/>
<glyph glyph-name="section" horiz-adv-x="987" unicode="§" d="M221 557q0 -78 72 -146.5t221 -138.5q99 -50 123 -65q62 40 98.5 94t36.5 113q0 78 -72 146t-221 138q-81 37 -125 64q-60 -38 -96.5 -92.5t-36.5 -112.5zM72 547q0 178 172 295q-135 117 -135 268v6q0 141 120.5 243.5t273.5 102.5h9q203 0 336 -119l8 -182h-14 q-153 166 -338 166q-103 0 -172 -60q-68 -60 -68 -155q0 -80 69 -149q70 -68 247 -154q342 -162 342 -385q0 -177 -172 -297q135 -117 135 -266q0 -99 -58 -181q-56 -82 -150 -127q-92 -45 -196 -45q-203 0 -336 119l-8 183h15q153 -166 337 -166q103 0 171 60q69 60 69 155 q0 80 -69 149q-68 68 -246 154q-342 162 -342 385z"/>
<glyph glyph-name="dieresis" horiz-adv-x="710" unicode="¨" d="M428 1284q0 45 32 79q33 34 77 34q46 0 79 -34q33 -33 33 -79q0 -44 -33 -76q-34 -32 -79 -32q-43 0 -77 32q-32 32 -32 76zM61 1284q0 45 32 79q33 34 77 34q46 0 79 -34q34 -33 34 -79q0 -45 -34 -76q-34 -32 -79 -32q-43 0 -77 32q-32 32 -32 76z"/>
<glyph glyph-name="copyright" horiz-adv-x="1646" unicode="©" d="M473 717q0 174 112 279q112 106 269 106q128 0 211 -66l4 -116h-12q-89 75 -203 75q-116 0 -189 -79q-73 -77 -73 -199q0 -125 70 -202q71 -77 192 -77q60 0 105.5 17.5t93.5 58.5h14l-6 -117q-76 -65 -207 -65q-162 0 -271 105q-110 105 -110 280zM823 70 q136 0 255.5 50.5t201.5 138.5q83 89 128.5 208t45.5 250q0 132 -45.5 250.5t-128.5 206.5q-82 89 -201.5 139.5t-255.5 50.5q-184 0 -329 -88q-145 -87 -223 -234t-78 -325t78 -325t223 -235q146 -87 329 -87zM78 717q0 155 55 290q113 283 388 396q141 59 302 59t302 -59 t237 -159q96 -99 152 -237q55 -135 55 -290t-55 -290q-57 -140 -152 -238q-96 -101 -237 -159q-141 -59 -302 -59q-216 0 -388 100q-170 100 -264 271q-93 170 -93 375z"/>
<glyph glyph-name="ordfeminine" horiz-adv-x="872" unicode="ª" d="M170 1073q0 -117 70 -194q70 -78 186 -78t186 78q70 77 70 194q0 113 -71 193t-185 80q-115 0 -186 -80q-70 -79 -70 -193zM55 1073q0 155 107 265t264 110q76 0 141.5 -30.5t106.5 -78.5v88h117v-710h-117v90q-41 -49 -106.5 -80t-141.5 -31q-158 0 -264 109 q-107 110 -107 268z"/>
<glyph glyph-name="guillemotleft" horiz-adv-x="1015" unicode="«" d="M911 262l-469 406v86l469 405h23v-168l-330 -280l330 -281v-168h-23zM535 262l-469 406v86l469 405h22v-168l-330 -280l330 -281v-168h-22z"/>
<glyph glyph-name="logicalnot" horiz-adv-x="937" unicode="¬" d="M676 639h-570v147h725v-440h-155v293z"/>
<glyph glyph-name="uni00AD" horiz-adv-x="802" unicode="­" d="M717 582h-631v135h631v-135z"/>
<glyph glyph-name="registered" horiz-adv-x="1646" unicode="®" d="M707 1016v-238h112q142 0 142 119q0 58 -36.5 88.5t-105.5 30.5h-112zM707 352h-105v762h221q111 0 182 -59q70 -58 70 -158q0 -77 -49 -129q-51 -54 -119 -76l211 -340h-119l-200 328h-92v-328zM823 70q136 0 255.5 50.5t201.5 138.5q83 89 128.5 208t45.5 250 q0 132 -45.5 250.5t-128.5 206.5q-82 89 -201.5 139.5t-255.5 50.5q-184 0 -329 -88q-145 -87 -223 -234t-78 -325t78 -325t223 -235q146 -87 329 -87zM78 717q0 155 55 290q113 283 388 396q141 59 302 59t302 -59t237 -159q96 -99 152 -237q55 -135 55 -290t-55 -290 q-57 -140 -152 -238q-96 -101 -237 -159q-141 -59 -302 -59q-216 0 -388 100q-170 100 -264 271q-93 170 -93 375z"/>
<glyph glyph-name="overscore" horiz-adv-x="593" unicode="¯" d="M532 1208h-471v131h471v-131z"/>
<glyph glyph-name="degree" horiz-adv-x="620" unicode="°" d="M200 1327q-42 -45 -42 -115t42 -115q42 -44 113 -44t113 44q43 44 43 115t-43 115q-42 45 -113 45t-113 -45zM132 1035q-73 72 -73 177t73 177q73 73 181 73t181 -73q73 -72 73 -177t-73 -177q-74 -72 -181 -72t-181 72z"/>
<glyph glyph-name="plusminus" horiz-adv-x="1011" unicode="±" d="M438 684h-340v135h340v340h135v-340h340v-135h-340v-340h-135v340zM913 0h-815v135h815v-135z"/>
<glyph glyph-name="twosuperior" horiz-adv-x="575" unicode="²" d="M532 717h-503v16l284 336q74 89 74 168q0 46 -35.5 77.5t-87.5 31.5q-103 0 -184 -113h-19l9 129q39 39 93 62.5t107 23.5q101 0 168 -59q66 -59 66 -152q0 -108 -121 -244l-152 -174h301v-102z"/>
<glyph glyph-name="threesuperior" horiz-adv-x="581" unicode="³" d="M68 756l-13 127h15q90 -78 190 -78q64 0 109 39q45 40 45 110t-47 112t-111 42q-40 0 -78 -12l-16 32l153 203h-256v103h445v-13l-178 -231q88 -10 150 -71q61 -60 61 -150q0 -126 -80 -197q-79 -70 -193 -70q-108 0 -196 54z"/>
<glyph glyph-name="acute" horiz-adv-x="577" unicode="´" d="M213 1153h-139l188 281h242z"/>
<glyph glyph-name="mu" horiz-adv-x="1120" unicode="µ" d="M283 -463h-164v1475h164v-652q0 -112 66 -177q67 -64 177 -64q127 0 212 94q87 94 87 236v563h164v-1012h-164v152q-56 -80 -150 -131q-95 -50 -200 -50q-109 0 -192 45v-479z"/>
<glyph glyph-name="paragraph" horiz-adv-x="1185" unicode="¶" d="M422 1434h641v-1897h-176v1741h-260v-1741h-176v1258h-29q-171 0 -272 89q-101 90 -101 230t101 230q100 90 272 90z"/>
<glyph glyph-name="middot" horiz-adv-x="391" unicode="·" d="M90 717q0 50 34 84q35 35 81 35q49 0 84 -35t35 -84q0 -46 -35 -81q-34 -34 -84 -34q-47 0 -81 34t-34 81z"/>
<glyph glyph-name="cedilla" horiz-adv-x="665" unicode="¸" d="M131 -459l-16 103l14 6q79 -45 152 -45q53 0 86.5 27.5t33.5 76.5t-33 76t-83 27q-57 0 -123 -29l-10 12l133 299l96 -35l-121 -186q60 23 121 23q74 0 122 -53q48 -52 48 -130q0 -89 -69 -147q-68 -58 -185 -58q-92 0 -166 33z"/>
<glyph glyph-name="onesuperior" horiz-adv-x="245" unicode="¹" d="M184 717h-123v649l97 68h26v-717z"/>
<glyph glyph-name="ordmasculine" horiz-adv-x="856" unicode="º" d="M170 1073q0 -121 73 -197q74 -75 185 -75q110 0 183 75q73 76 73 197q0 120 -73 196q-74 77 -183 77q-111 0 -185 -77q-73 -76 -73 -196zM55 1073q0 162 107 269q107 106 266 106t265 -106q108 -106 108 -269q0 -165 -108 -271q-106 -106 -265 -106t-266 106 q-107 107 -107 271z"/>
<glyph glyph-name="guillemotright" horiz-adv-x="1015" unicode="»" d="M481 262h-22v168l329 281l-329 280v168h22l469 -405v-86zM104 262h-22v168l330 281l-330 280v168h22l469 -405v-86z"/>
<glyph glyph-name="onequarter" horiz-adv-x="1064" unicode="¼" d="M631 12l-172 -209h172v209zM307 -299v68l395 485h52v-451h98v-102h-98v-164h-123v164h-324zM389 717h-123v649l96 68h27v-717zM78 213l-51 100l960 498l51 -100z"/>
<glyph glyph-name="onehalf" horiz-adv-x="1064" unicode="½" d="M401 -463v17l285 335q74 89 74 168q0 46 -35.5 77.5t-87.5 31.5q-103 0 -184 -113h-19l8 129q39 39 93 62.5t108 23.5q101 0 168 -59q66 -58 66 -152q0 -107 -121 -243l-152 -174h301v-103h-504zM389 717h-123v649l96 68h27v-717zM78 213l-51 100l960 498l51 -100z"/>
<glyph glyph-name="threequarters" horiz-adv-x="1064" unicode="¾" d="M631 12l-172 -209h172v209zM307 -299v68l395 485h52v-451h98v-102h-98v-164h-123v164h-324zM55 756l-12 127h14q90 -78 191 -78q66 0 109.5 40.5t43.5 108.5q0 72 -46 112q-47 42 -111 42q-40 0 -78 -12l-16 32l153 203h-256v103h445v-13l-179 -231q88 -10 150 -71 q61 -60 61 -150q0 -126 -80 -197q-79 -70 -192 -70q-108 0 -197 54zM78 213l-51 100l960 498l51 -100z"/>
<glyph glyph-name="questiondown" horiz-adv-x="884" unicode="¿" d="M392 810q-36 36 -36 89t36 89t89 36t89 -36t36 -89t-36 -89t-89 -36t-89 36zM90 -119q0 159 112 286q14 15 46 49t48.5 52t41.5 50.5t37.5 57t22.5 57t10 65.5v88h163v-64q0 -62 -17.5 -117t-45.5 -97t-62 -80.5t-67.5 -75.5t-61.5 -74t-45.5 -83t-17.5 -97 q0 -96 65 -155q65 -58 173 -58q92 0 178 50q85 49 135 113h18l-12 -176q-63 -51 -151 -86q-89 -37 -177 -37q-173 0 -283 91q-110 90 -110 241z"/>
<glyph glyph-name="Agrave" horiz-adv-x="1368" unicode="À" d="M684 1090l-274 -644h548zM600 1575l-291 280h242l188 -280h-139zM219 0h-184l622 1434h54l622 -1434h-184l-123 291h-684z"/>
<glyph glyph-name="Aacute" horiz-adv-x="1368" unicode="Á" d="M768 1575h-139l188 280h242zM684 1090l-274 -644h548zM219 0h-184l622 1434h54l622 -1434h-184l-123 291h-684z"/>
<glyph glyph-name="Acircumflex" horiz-adv-x="1368" unicode="Â" d="M684 1090l-274 -644h548zM500 1575h-123l205 280h215l204 -280h-122l-191 182zM219 0h-184l622 1434h54l622 -1434h-184l-123 291h-684z"/>
<glyph glyph-name="Atilde" horiz-adv-x="1368" unicode="Ã" d="M684 1090l-274 -644h548zM334 1602h-10l14 147q92 86 203 86q91 0 172 -59q83 -58 145 -58q88 0 178 99h11l-15 -148q-92 -86 -203 -86q-89 0 -172 58q-81 59 -145 59q-89 0 -178 -98zM219 0h-184l622 1434h54l622 -1434h-184l-123 291h-684z"/>
<glyph glyph-name="Adieresis" horiz-adv-x="1368" unicode="Ä" d="M758 1706q0 45 32 79q31 34 76 34q46 0 79 -34q34 -33 34 -79q0 -44 -34 -77q-34 -32 -79 -32q-44 0 -76 32q-32 34 -32 77zM684 1090l-274 -644h548zM391 1706q0 45 32 79q33 34 77 34q46 0 79 -34q33 -33 33 -79q0 -44 -33 -77q-34 -32 -79 -32q-43 0 -77 32 q-32 34 -32 77zM219 0h-184l622 1434h54l622 -1434h-184l-123 291h-684z"/>
<glyph glyph-name="Aring" horiz-adv-x="1368" unicode="Å" d="M591 1662q-36 -38 -36 -91q0 -55 36 -92t93 -37t93 37t36 92q0 53 -36 91t-93 38t-93 -38zM684 1090l-274 -644h548zM219 0h-184l596 1370q-72 20 -114 74q-44 56 -44 127q0 87 61 147q62 60 150 60t150 -60q61 -60 61 -147q0 -71 -44 -127q-42 -54 -114 -74l596 -1370 h-184l-123 291h-684z"/>
<glyph glyph-name="AE" horiz-adv-x="1994" unicode="Æ" d="M684 1090l-272 -644h546zM219 0h-184l622 1434h666l70 -156h-623l207 -463h571l66 -156h-570l222 -503h626l68 -156h-811l-123 291h-684z"/>
<glyph glyph-name="Ccedilla" horiz-adv-x="1353" unicode="Ç" d="M82 717q0 158 57 297.5t157 237.5q101 99 234 154q138 56 287 56q237 0 418 -123l12 -202h-20q-185 170 -418 170q-108 0 -206 -40.5t-174 -115.5q-76 -76 -119.5 -188.5t-43.5 -245.5t43.5 -245.5t119.5 -188.5q76 -75 174 -115.5t206 -40.5q233 0 418 170h20l-12 -203 q-177 -120 -418 -123l-63 -98q60 23 120 23q78 0 124 -52t46 -131q0 -89 -66 -147q-65 -58 -181 -58q-99 0 -172 33l-17 103l15 6q79 -45 151 -45q50 0 85.5 29t35.5 79q0 49 -33.5 74t-87.5 25q-53 0 -119 -29l-10 12l80 182q-135 15 -254 75.5t-206 157.5 q-86 98 -134.5 229.5t-48.5 277.5z"/>
<glyph glyph-name="Egrave" horiz-adv-x="1062" unicode="È" d="M590 1575l-291 280h242l188 -280h-139zM971 0h-828v1434h820v-156h-635v-463h612v-156h-612v-503h643v-156z"/>
<glyph glyph-name="Eacute" horiz-adv-x="1062" unicode="É" d="M537 1575h-140l189 280h241zM971 0h-828v1434h820v-156h-635v-463h612v-156h-612v-503h643v-156z"/>
<glyph glyph-name="Ecircumflex" horiz-adv-x="1062" unicode="Ê" d="M373 1575h-123l205 280h215l204 -280h-122l-191 182zM971 0h-828v1434h820v-156h-635v-463h612v-156h-612v-503h643v-156z"/>
<glyph glyph-name="Edieresis" horiz-adv-x="1062" unicode="Ë" d="M653 1706q0 45 32 79q33 34 77 34q46 0 79 -34q33 -33 33 -79q0 -44 -33 -77q-34 -32 -79 -32q-43 0 -77 32q-32 34 -32 77zM287 1706q0 45 32 79q31 34 76 34q46 0 79 -34q34 -33 34 -79q0 -44 -34 -77q-34 -32 -79 -32q-44 0 -76 32q-32 34 -32 77zM971 0h-828v1434 h820v-156h-635v-463h612v-156h-612v-503h643v-156z"/>
<glyph glyph-name="Igrave" horiz-adv-x="471" unicode="Ì" d="M328 0h-185v1434h185v-1434zM219 1575l-291 280h242l188 -280h-139z"/>
<glyph glyph-name="Iacute" horiz-adv-x="471" unicode="Í" d="M328 0h-185v1434h185v-1434zM242 1575h-140l189 280h241z"/>
<glyph glyph-name="Icircumflex" horiz-adv-x="471" unicode="Î" d="M328 0h-185v1434h185v-1434zM47 1575h-123l205 280h215l205 -280h-123l-190 182z"/>
<glyph glyph-name="Idieresis" horiz-adv-x="471" unicode="Ï" d="M309 1706q0 45 32 79q33 34 77 34q46 0 79 -34q33 -33 33 -79q0 -44 -33 -77q-34 -32 -79 -32q-43 0 -77 32q-32 34 -32 77zM328 0h-185v1434h185v-1434zM-57 1706q0 45 32 79q31 34 76 34q46 0 79 -34q34 -33 34 -79q0 -44 -34 -77q-34 -32 -79 -32q-44 0 -76 32 q-32 34 -32 77z"/>
<glyph glyph-name="Eth" horiz-adv-x="1296" unicode="Ð" d="M344 647v-491h139q232 0 387 144q76 71 118 179t42 238q0 131 -42 238.5t-118 177.5q-154 145 -387 145h-139v-496h287v-135h-287zM160 647h-160v135h160v652h319q146 0 279 -49t235 -140q101 -90 161 -227q60 -136 60 -301t-60 -301q-60 -137 -161 -227 q-102 -91 -235 -140t-279 -49h-319v647z"/>
<glyph glyph-name="Ntilde" horiz-adv-x="1382" unicode="Ñ" d="M340 1602h-10l14 147q92 86 203 86q91 0 172 -59q83 -58 145 -58q88 0 178 99h11l-15 -148q-92 -86 -202 -86q-90 0 -173 58q-81 59 -145 59q-89 0 -178 -98zM328 0h-185v1434h70l842 -1008v1008h184v-1434h-70l-841 1012v-1012z"/>
<glyph glyph-name="Ograve" horiz-adv-x="1658" unicode="Ò" d="M813 1575l-291 280h242l188 -280h-139zM829 127q157 0 284 69q127 70 203 206q77 137 77 315t-77 315q-75 134 -201.5 204.5t-285.5 70.5q-237 0 -399 -156q-77 -76 -120.5 -188.5t-43.5 -245.5t43.5 -245.5t120.5 -188.5q162 -156 399 -156zM82 717q0 159 58 296 q58 139 158 237q102 100 238 155q138 57 293 57t293 -57q136 -55 238 -155q99 -96 158 -237q59 -139 59 -296q0 -210 -100 -382q-99 -170 -270 -268q-171 -96 -378 -96t-378 96q-171 98 -270 268q-99 173 -99 382z"/>
<glyph glyph-name="Oacute" horiz-adv-x="1658" unicode="Ó" d="M846 1575h-139l188 280h242zM829 127q157 0 284 69q127 70 203 206q77 137 77 315t-77 315q-75 134 -201.5 204.5t-285.5 70.5q-237 0 -399 -156q-77 -76 -120.5 -188.5t-43.5 -245.5t43.5 -245.5t120.5 -188.5q162 -156 399 -156zM82 717q0 159 58 296q58 139 158 237 q102 100 238 155q138 57 293 57t293 -57q136 -55 238 -155q99 -96 158 -237q59 -139 59 -296q0 -210 -100 -382q-99 -170 -270 -268q-171 -96 -378 -96t-378 96q-171 98 -270 268q-99 173 -99 382z"/>
<glyph glyph-name="Ocircumflex" horiz-adv-x="1658" unicode="Ô" d="M641 1575h-123l205 280h215l205 -280h-123l-191 182zM829 127q157 0 284 69q127 70 203 206q77 137 77 315t-77 315q-75 134 -201.5 204.5t-285.5 70.5q-237 0 -399 -156q-77 -76 -120.5 -188.5t-43.5 -245.5t43.5 -245.5t120.5 -188.5q162 -156 399 -156zM82 717 q0 159 58 296q58 139 158 237q102 100 238 155q138 57 293 57t293 -57q136 -55 238 -155q99 -96 158 -237q59 -139 59 -296q0 -210 -100 -382q-99 -170 -270 -268q-171 -96 -378 -96t-378 96q-171 98 -270 268q-99 173 -99 382z"/>
<glyph glyph-name="Otilde" horiz-adv-x="1658" unicode="Õ" d="M479 1602h-10l14 147q92 86 203 86q45 0 92.5 -17.5t80.5 -41.5q83 -58 145 -58q88 0 178 99h10l-14 -148q-92 -86 -203 -86q-90 0 -173 58q-81 59 -145 59q-89 0 -178 -98zM829 127q157 0 284 69q127 70 203 206q77 137 77 315t-77 315q-75 134 -201.5 204.5 t-285.5 70.5q-237 0 -399 -156q-77 -76 -120.5 -188.5t-43.5 -245.5t43.5 -245.5t120.5 -188.5q162 -156 399 -156zM82 717q0 159 58 296q58 139 158 237q102 100 238 155q138 57 293 57t293 -57q136 -55 238 -155q99 -96 158 -237q59 -139 59 -296q0 -210 -100 -382 q-99 -170 -270 -268q-171 -96 -378 -96t-378 96q-171 98 -270 268q-99 173 -99 382z"/>
<glyph glyph-name="Odieresis" horiz-adv-x="1658" unicode="Ö" d="M903 1706q0 45 32 79q33 34 77 34q46 0 79 -34q33 -33 33 -79q0 -44 -33 -77q-34 -32 -79 -32q-43 0 -77 32q-32 34 -32 77zM537 1706q0 45 32 79q31 34 76 34q46 0 79 -34q34 -33 34 -79q0 -44 -34 -77q-34 -32 -79 -32q-44 0 -76 32q-32 34 -32 77zM829 127 q157 0 284 69q127 70 203 206q77 137 77 315t-77 315q-75 134 -201.5 204.5t-285.5 70.5q-237 0 -399 -156q-77 -76 -120.5 -188.5t-43.5 -245.5t43.5 -245.5t120.5 -188.5q162 -156 399 -156zM82 717q0 159 58 296q58 139 158 237q102 100 238 155q138 57 293 57t293 -57 q136 -55 238 -155q99 -96 158 -237q59 -139 59 -296q0 -210 -100 -382q-99 -170 -270 -268q-171 -96 -378 -96t-378 96q-171 98 -270 268q-99 173 -99 382z"/>
<glyph glyph-name="multiply" horiz-adv-x="868" unicode="×" d="M195 416l-97 96l240 240l-240 239l97 96l239 -239l240 239l96 -96l-240 -239l240 -240l-96 -96l-240 239z"/>
<glyph glyph-name="Oslash" horiz-adv-x="1658" unicode="Ø" d="M1188 1188l-584 -1020q108 -41 225 -41q157 0 284 69q127 70 203 206q77 137 77 315q0 151 -53.5 272t-151.5 199zM266 717q0 -151 53.5 -272t151.5 -199l584 1020q-108 41 -226 41q-237 0 -399 -156q-77 -76 -120.5 -188.5t-43.5 -245.5zM82 717q0 159 58 296 q58 139 158 237q102 100 238 155q138 57 293 57q156 0 304 -59l59 104l135 -73l-59 -107q144 -101 226 -260q83 -160 83 -350q0 -210 -100 -382q-99 -170 -270 -268q-171 -96 -378 -96q-155 0 -303 60l-59 -105l-135 74l59 106q-145 101 -227 259q-82 160 -82 352z"/>
<glyph glyph-name="Ugrave" horiz-adv-x="1306" unicode="Ù" d="M688 1575l-291 280h242l188 -280h-139zM123 535v899h184v-930q0 -96 29.5 -171.5t80.5 -119.5q103 -86 236 -86q134 0 235 86q52 44 81.5 119.5t29.5 171.5v930h185v-899q0 -267 -146 -416q-145 -148 -385 -148q-239 0 -384 147q-146 149 -146 417z"/>
<glyph glyph-name="Uacute" horiz-adv-x="1306" unicode="Ú" d="M618 1575h-139l189 280h241zM123 535v899h184v-930q0 -96 29.5 -171.5t80.5 -119.5q103 -86 236 -86q134 0 235 86q52 44 81.5 119.5t29.5 171.5v930h185v-899q0 -267 -146 -416q-145 -148 -385 -148q-239 0 -384 147q-146 149 -146 417z"/>
<glyph glyph-name="Ucircumflex" horiz-adv-x="1306" unicode="Û" d="M465 1575h-123l205 280h215l205 -280h-123l-191 182zM123 535v899h184v-930q0 -96 29.5 -171.5t80.5 -119.5q103 -86 236 -86q134 0 235 86q52 44 81.5 119.5t29.5 171.5v930h185v-899q0 -267 -146 -416q-145 -148 -385 -148q-239 0 -384 147q-146 149 -146 417z"/>
<glyph glyph-name="Udieresis" horiz-adv-x="1306" unicode="Ü" d="M727 1706q0 45 32 79q33 34 77 34q46 0 79 -34q33 -33 33 -79q0 -44 -33 -77q-34 -32 -79 -32q-43 0 -77 32q-32 34 -32 77zM360 1706q0 45 32 79q33 34 77 34q46 0 79 -34q34 -33 34 -79q0 -44 -34 -77q-34 -32 -79 -32q-43 0 -77 32q-32 34 -32 77zM123 535v899h184 v-930q0 -96 29.5 -171.5t80.5 -119.5q103 -86 236 -86q134 0 235 86q52 44 81.5 119.5t29.5 171.5v930h185v-899q0 -267 -146 -416q-145 -148 -385 -148q-239 0 -384 147q-146 149 -146 417z"/>
<glyph glyph-name="Yacute" horiz-adv-x="1200" unicode="Ý" d="M565 1575h-139l188 280h242zM508 623l-479 811h196l375 -652l375 652h196l-479 -811v-623h-184v623z"/>
<glyph glyph-name="Thorn" horiz-adv-x="1028" unicode="Þ" d="M307 1008v-582h182q140 0 228 77q88 76 88 214t-88 214q-88 77 -228 77h-182zM307 0h-184v1434h184v-271h180q116 0 213.5 -37t159.5 -101q129 -129 129 -308q0 -178 -129 -309q-62 -64 -159.5 -101t-213.5 -37h-180v-270z"/>
<glyph glyph-name="germandbls" horiz-adv-x="1198" unicode="ß" d="M207 864h-137v148h137v78q0 112 53 198q53 85 136.5 129.5t183.5 44.5q171 0 271 -94q101 -95 101 -242q0 -116 -63 -203.5t-172 -136.5q165 -38 282 -137q61 -51 95 -125.5t34 -163.5q0 -174 -105 -282q-105 -107 -265 -107q-83 0 -164 26.5t-141 72.5l39 159h12 q43 -46 110 -74q66 -28 127 -28q99 0 161 65q63 64 63 177q0 139 -131 228t-328 101v148q133 11 207.5 81.5t74.5 188.5q0 87 -58 146q-57 61 -150 61t-151 -61t-58 -166v-1096h-164v864z"/>
<glyph glyph-name="agrave" horiz-adv-x="1255" unicode="à" d="M641 1153l-291 281h242l188 -281h-139zM342 781q-100 -112 -100 -275t100 -275t264 -112t264 112q101 113 101 275t-101 275q-100 112 -264 112t-264 -112zM606 1040q108 0 201.5 -42.5t153.5 -112.5v127h163v-1012h-163v127q-60 -70 -153.5 -113t-201.5 -43 q-148 0 -270 72q-120 71 -190 194q-68 124 -68 269q0 146 68 268q70 124 190 194q122 72 270 72z"/>
<glyph glyph-name="aacute" horiz-adv-x="1255" unicode="á" d="M571 1153h-139l189 281h241zM342 781q-100 -112 -100 -275t100 -275t264 -112t264 112q101 113 101 275t-101 275q-100 112 -264 112t-264 -112zM606 1040q108 0 201.5 -42.5t153.5 -112.5v127h163v-1012h-163v127q-60 -70 -153.5 -113t-201.5 -43q-148 0 -270 72 q-120 71 -190 194q-68 124 -68 269q0 146 68 268q70 124 190 194q122 72 270 72z"/>
<glyph glyph-name="acircumflex" horiz-adv-x="1255" unicode="â" d="M418 1153h-123l205 281h215l205 -281h-123l-191 182zM342 781q-100 -112 -100 -275t100 -275t264 -112t264 112q101 113 101 275t-101 275q-100 112 -264 112t-264 -112zM606 1040q108 0 201.5 -42.5t153.5 -112.5v127h163v-1012h-163v127q-60 -70 -153.5 -113 t-201.5 -43q-148 0 -270 72q-120 71 -190 194q-68 124 -68 269q0 146 68 268q70 124 190 194q122 72 270 72z"/>
<glyph glyph-name="atilde" horiz-adv-x="1255" unicode="ã" d="M266 1180h-10l14 147q92 86 203 86q45 0 92.5 -17.5t80.5 -41.5q83 -58 145 -58q88 0 178 99h10l-14 -148q-92 -86 -203 -86q-90 0 -173 58q-81 59 -145 59q-89 0 -178 -98zM342 781q-100 -112 -100 -275t100 -275t264 -112t264 112q101 113 101 275t-101 275 q-100 112 -264 112t-264 -112zM606 1040q108 0 201.5 -42.5t153.5 -112.5v127h163v-1012h-163v127q-60 -70 -153.5 -113t-201.5 -43q-148 0 -270 72q-120 71 -190 194q-68 124 -68 269q0 146 68 268q70 124 190 194q122 72 270 72z"/>
<glyph glyph-name="adieresis" horiz-adv-x="1255" unicode="ä" d="M680 1284q0 45 32 79q31 34 76 34q46 0 79 -34q34 -33 34 -79q0 -45 -34 -76q-34 -32 -79 -32q-44 0 -76 32t-32 76zM313 1284q0 45 32 79q33 34 77 34q46 0 79 -34q34 -33 34 -79q0 -45 -34 -76q-34 -32 -79 -32q-43 0 -77 32q-32 32 -32 76zM342 781 q-100 -112 -100 -275t100 -275t264 -112t264 112q101 113 101 275t-101 275q-100 112 -264 112t-264 -112zM606 1040q108 0 201.5 -42.5t153.5 -112.5v127h163v-1012h-163v127q-60 -70 -153.5 -113t-201.5 -43q-148 0 -270 72q-120 71 -190 194q-68 124 -68 269 q0 146 68 268q70 124 190 194q122 72 270 72z"/>
<glyph glyph-name="aring" horiz-adv-x="1255" unicode="å" d="M513 1412q-36 -38 -36 -91q0 -55 36 -92t93 -37t93 37t36 92q0 53 -36 91t-93 38t-93 -38zM456 1174q-61 60 -61 147t61 147q62 60 150 60t150 -60q61 -60 61 -147t-61 -147q-62 -60 -150 -60t-150 60zM342 781q-100 -112 -100 -275t100 -275t264 -112t264 112 q101 113 101 275t-101 275q-100 112 -264 112t-264 -112zM606 1040q108 0 201.5 -42.5t153.5 -112.5v127h163v-1012h-163v127q-60 -70 -153.5 -113t-201.5 -43q-148 0 -270 72q-120 71 -190 194q-68 124 -68 269q0 146 68 268q70 124 190 194q122 72 270 72z"/>
<glyph glyph-name="ae" horiz-adv-x="1775" unicode="æ" d="M868 598h672q-15 136 -108 222q-92 85 -232 85q-118 0 -212 -81q-94 -79 -120 -226zM250 268q0 -69 47 -109t125 -40q101 0 183 82q42 40 66.5 109.5t24.5 152.5q-446 0 -446 -195zM78 250q0 74 28 133.5t74.5 99t109.5 66t129 38t136 11.5h141q0 165 -76 238 q-66 69 -161 69q-153 0 -279 -133h-22l16 170q53 39 136 68q82 30 165 30q109 0 200 -53t134 -141q73 92 175 143t216 51q216 0 352 -136q138 -135 138 -359v-82h-830q9 -108 65 -188q109 -156 298 -156q107 0 193 36q88 38 186 128h16l-6 -179q-92 -68 -184 -100.5 t-203 -32.5q-138 0 -253.5 61.5t-185.5 170.5q-64 -106 -166 -169q-100 -63 -214 -63q-147 0 -238 82q-90 82 -90 197z"/>
<glyph glyph-name="ccedilla" horiz-adv-x="1011" unicode="ç" d="M78 506q0 160 74 284q74 122 192.5 186t261.5 64q174 0 293 -90l6 -164h-18q-67 57 -131 82q-63 25 -150 25q-161 0 -263 -109q-101 -110 -101 -278q0 -172 97 -279q97 -108 267 -108q84 0 147.5 24.5t129.5 81.5h18l-6 -164q-115 -90 -287 -90l-63 -98q60 23 121 23 q78 0 124 -52t46 -131q0 -89 -67 -147q-65 -58 -181 -58q-98 0 -172 33l-17 103l15 6q79 -45 151 -45q50 0 85.5 29t35.5 79q0 49 -33.5 74t-87.5 25q-53 0 -119 -29l-10 12l82 185q-191 27 -316 168q-124 140 -124 358z"/>
<glyph glyph-name="egrave" horiz-adv-x="1157" unicode="è" d="M592 1153l-291 281h242l188 -281h-139zM250 598h672q-15 136 -108 222q-92 85 -232 85q-118 0 -212 -81q-94 -79 -120 -226zM78 506q0 110 40 210.5t109 171.5q70 71 163 111.5t192 40.5q216 0 352 -136q137 -135 137 -359v-82h-829q9 -108 65 -188q109 -156 297 -156 q108 0 193 36q88 38 186 128h16l-6 -179q-92 -68 -184 -100.5t-203 -32.5q-148 0 -270 71q-120 70 -190 193q-68 124 -68 271z"/>
<glyph glyph-name="eacute" horiz-adv-x="1157" unicode="é" d="M563 1153h-139l188 281h242zM250 598h672q-15 136 -108 222q-92 85 -232 85q-118 0 -212 -81q-94 -79 -120 -226zM78 506q0 110 40 210.5t109 171.5q70 71 163 111.5t192 40.5q216 0 352 -136q137 -135 137 -359v-82h-829q9 -108 65 -188q109 -156 297 -156q108 0 193 36 q88 38 186 128h16l-6 -179q-92 -68 -184 -100.5t-203 -32.5q-148 0 -270 71q-120 70 -190 193q-68 124 -68 271z"/>
<glyph glyph-name="ecircumflex" horiz-adv-x="1157" unicode="ê" d="M389 1153h-123l205 281h215l205 -281h-123l-190 182zM250 598h672q-15 136 -108 222q-92 85 -232 85q-118 0 -212 -81q-94 -79 -120 -226zM78 506q0 110 40 210.5t109 171.5q70 71 163 111.5t192 40.5q216 0 352 -136q137 -135 137 -359v-82h-829q9 -108 65 -188 q109 -156 297 -156q108 0 193 36q88 38 186 128h16l-6 -179q-92 -68 -184 -100.5t-203 -32.5q-148 0 -270 71q-120 70 -190 193q-68 124 -68 271z"/>
<glyph glyph-name="edieresis" horiz-adv-x="1157" unicode="ë" d="M651 1284q0 45 32 79q33 34 77 34q46 0 79 -34q33 -33 33 -79q0 -44 -33 -76q-34 -32 -79 -32q-43 0 -77 32q-32 32 -32 76zM285 1284q0 45 32 79q31 34 76 34q46 0 79 -34q34 -33 34 -79q0 -45 -34 -76q-34 -32 -79 -32q-44 0 -76 32t-32 76zM250 598h672 q-15 136 -108 222q-92 85 -232 85q-118 0 -212 -81q-94 -79 -120 -226zM78 506q0 110 40 210.5t109 171.5q70 71 163 111.5t192 40.5q216 0 352 -136q137 -135 137 -359v-82h-829q9 -108 65 -188q109 -156 297 -156q108 0 193 36q88 38 186 128h16l-6 -179 q-92 -68 -184 -100.5t-203 -32.5q-148 0 -270 71q-120 70 -190 193q-68 124 -68 271z"/>
<glyph glyph-name="igrave" horiz-adv-x="446" unicode="ì" d="M305 0h-164v1012h164v-1012zM227 1153l-290 281h241l189 -281h-140z"/>
<glyph glyph-name="iacute" horiz-adv-x="446" unicode="í" d="M305 0h-164v1012h164v-1012zM209 1153h-139l188 281h242z"/>
<glyph glyph-name="icircumflex" horiz-adv-x="446" unicode="î" d="M305 0h-164v1012h164v-1012zM35 1153h-123l205 281h215l205 -281h-123l-191 182z"/>
<glyph glyph-name="idieresis" horiz-adv-x="446" unicode="ï" d="M297 1284q0 45 32 79q33 34 77 34q46 0 79 -34q33 -33 33 -79q0 -44 -33 -76q-34 -32 -79 -32q-43 0 -77 32q-32 32 -32 76zM305 0h-164v1012h164v-1012zM-70 1284q0 46 33 79q31 34 76 34q46 0 79 -34q34 -33 34 -79q0 -45 -34 -76q-34 -32 -79 -32q-44 0 -76 32 q-33 32 -33 76z"/>
<glyph glyph-name="eth" horiz-adv-x="1169" unicode="ð" d="M352 684q-90 -88 -90 -229q0 -140 90 -230t219 -90t220 90q92 92 92 230q0 139 -92 229t-220 90q-129 0 -219 -90zM78 455q0 100 39.5 190.5t107.5 152.5q66 62 153 97t177 35q104 0 191 -45q87 -44 143 -115q-32 221 -201 383l-334 -137l-32 82l292 119 q-104 81 -258 137v32l146 68q159 -67 278 -168l181 76l32 -82l-145 -59q235 -256 235 -646q0 -171 -64 -308q-65 -138 -183 -217t-271 -79h-10q-124 0 -234.5 65.5t-176.5 175.5t-66 233v10z"/>
<glyph glyph-name="ntilde" horiz-adv-x="1120" unicode="ñ" d="M229 1180h-10l14 147q92 86 203 86q45 0 92.5 -17.5t80.5 -41.5q83 -58 145 -58q88 0 178 99h10l-14 -148q-92 -86 -203 -86q-89 0 -172 58q-81 59 -145 59q-90 0 -179 -98zM295 0h-164v1012h164v-152q57 81 150 130q95 50 200 50q160 0 257 -96q99 -96 99 -258v-686 h-163v651q0 113 -67 177q-68 65 -177 65q-126 0 -213 -95q-86 -95 -86 -235v-563z"/>
<glyph glyph-name="ograve" d="M623 1153l-291 281h241l189 -281h-139zM608 119q160 0 263 108q104 109 104 279t-104 279q-103 108 -263 108q-158 0 -262 -108q-104 -109 -104 -279t104 -279q103 -108 262 -108zM230 122q-152 152 -152 384q0 231 152 383q152 151 378 151t378 -151q153 -151 153 -383 t-153 -384q-152 -151 -378 -151t-378 151z" unicode="ò"/>
<glyph glyph-name="oacute" d="M594 1153h-139l188 281h242zM608 119q160 0 263 108q104 109 104 279t-104 279q-103 108 -263 108q-158 0 -262 -108q-104 -109 -104 -279t104 -279q103 -108 262 -108zM230 122q-152 152 -152 384q0 231 152 383q152 151 378 151t378 -151q153 -151 153 -383t-153 -384 q-152 -151 -378 -151t-378 151z" unicode="ó"/>
<glyph glyph-name="ocircumflex" d="M420 1153h-123l205 281h215l205 -281h-123l-191 182zM608 119q160 0 263 108q104 109 104 279t-104 279q-103 108 -263 108q-158 0 -262 -108q-104 -109 -104 -279t104 -279q103 -108 262 -108zM230 122q-152 152 -152 384q0 231 152 383q152 151 378 151t378 -151 q153 -151 153 -383t-153 -384q-152 -151 -378 -151t-378 151z" unicode="ô"/>
<glyph glyph-name="otilde" d="M258 1180h-10l14 147q92 86 203 86q91 0 172 -59q83 -58 145 -58q89 0 179 99h10l-15 -148q-92 -86 -202 -86q-90 0 -173 58q-81 59 -145 59q-89 0 -178 -98zM608 119q160 0 263 108q104 109 104 279t-104 279q-103 108 -263 108q-158 0 -262 -108q-104 -109 -104 -279 t104 -279q103 -108 262 -108zM230 122q-152 152 -152 384q0 231 152 383q152 151 378 151t378 -151q153 -151 153 -383t-153 -384q-152 -151 -378 -151t-378 151z" unicode="õ"/>
<glyph glyph-name="odieresis" d="M682 1284q0 45 32 79q33 34 77 34q46 0 79 -34q33 -33 33 -79q0 -44 -33 -76q-34 -32 -79 -32q-43 0 -77 32q-32 32 -32 76zM315 1284q0 45 32 79q33 34 77 34q46 0 79 -34q34 -33 34 -79q0 -45 -34 -76q-34 -32 -79 -32q-43 0 -77 32q-32 32 -32 76zM608 119 q160 0 263 108q104 109 104 279t-104 279q-103 108 -263 108q-158 0 -262 -108q-104 -109 -104 -279t104 -279q103 -108 262 -108zM230 122q-152 152 -152 384q0 231 152 383q152 151 378 151t378 -151q153 -151 153 -383t-153 -384q-152 -151 -378 -151t-378 151z" unicode="ö"/>
<glyph glyph-name="divide" horiz-adv-x="1011" unicode="÷" d="M389 1061q0 50 34 84q35 35 81 35q49 0 84 -35t35 -84q0 -46 -35 -81q-34 -34 -84 -34q-47 0 -81 34t-34 81zM389 307q0 50 34 84q35 35 81 35q49 0 84 -35t35 -84q0 -46 -35 -81q-34 -33 -84 -33q-46 0 -81 33q-34 34 -34 81zM913 614h-815v136h815v-136z"/>
<glyph glyph-name="oslash" d="M862 795l-377 -658q59 -18 123 -18q160 0 263 108q104 109 104 279q0 179 -113 289zM242 506q0 -180 112 -289l377 657q-60 19 -123 19q-158 0 -262 -108q-104 -109 -104 -279zM78 506q0 231 152 383q152 151 378 151q111 0 197 -34l45 79l135 -73l-45 -80 q94 -73 146.5 -184t52.5 -242q0 -232 -153 -384q-152 -151 -378 -151q-105 0 -196 35l-45 -80l-136 74l45 80q-94 73 -146 183.5t-52 242.5z" unicode="ø"/>
<glyph glyph-name="ugrave" horiz-adv-x="1120" unicode="ù" d="M553 1153l-291 281h242l188 -281h-139zM119 326v686h164v-652q0 -112 66 -177q67 -64 177 -64q127 0 212 94q87 94 87 236v563h164v-1012h-164v152q-56 -80 -150 -131q-95 -50 -200 -50q-159 0 -258 96q-98 98 -98 259z"/>
<glyph glyph-name="uacute" horiz-adv-x="1120" unicode="ú" d="M545 1153h-139l188 281h242zM119 326v686h164v-652q0 -112 66 -177q67 -64 177 -64q127 0 212 94q87 94 87 236v563h164v-1012h-164v152q-56 -80 -150 -131q-95 -50 -200 -50q-159 0 -258 96q-98 98 -98 259z"/>
<glyph glyph-name="ucircumflex" horiz-adv-x="1120" unicode="û" d="M371 1153h-123l205 281h215l204 -281h-122l-191 182zM119 326v686h164v-652q0 -112 66 -177q67 -64 177 -64q127 0 212 94q87 94 87 236v563h164v-1012h-164v152q-56 -80 -150 -131q-95 -50 -200 -50q-159 0 -258 96q-98 98 -98 259z"/>
<glyph glyph-name="udieresis" horiz-adv-x="1120" unicode="ü" d="M633 1284q0 45 32 79q31 34 76 34q46 0 79 -34q34 -33 34 -79q0 -45 -34 -76q-34 -32 -79 -32q-44 0 -76 32t-32 76zM266 1284q0 45 32 79q33 34 77 34q46 0 79 -34q33 -33 33 -79q0 -44 -33 -76q-34 -32 -79 -32q-43 0 -77 32q-32 32 -32 76zM119 326v686h164v-652 q0 -112 66 -177q67 -64 177 -64q127 0 212 94q87 94 87 236v563h164v-1012h-164v152q-56 -80 -150 -131q-95 -50 -200 -50q-159 0 -258 96q-98 98 -98 259z"/>
<glyph glyph-name="yacute" horiz-adv-x="1038" unicode="ý" d="M504 1153h-139l188 281h242zM438 182l-403 830h184l305 -650l314 650h166l-713 -1475h-164z"/>
<glyph glyph-name="thorn" horiz-adv-x="1263" unicode="þ" d="M390 780q-105 -112 -105 -274t105 -274q105 -113 263 -113t263 113q106 113 106 274t-106 273q-105 114 -263 114t-263 -113zM295 -463h-164v1897h164v-574q69 77 164 128q95 52 211 52q219 0 367 -151q149 -151 149 -383q0 -114 -40 -215t-110 -172q-70 -70 -163.5 -109 t-196.5 -39q-123 0 -222 49t-159 127v-610z"/>
<glyph glyph-name="OE" horiz-adv-x="2312" unicode="Œ" d="M829 127q157 0 284 69q127 70 203 206q77 137 77 315t-77 315q-75 134 -201.5 204.5t-285.5 70.5q-237 0 -399 -156q-77 -76 -120.5 -188.5t-43.5 -245.5t43.5 -245.5t120.5 -188.5q162 -156 399 -156zM82 717q0 159 58 296q58 139 158 237q102 100 238 155 q138 57 293 57q166 0 313 -65q148 -65 251 -180v217h819v-156h-635v-463h612v-156h-612v-503h643v-156h-827v217q-105 -118 -251.5 -182t-312.5 -64q-207 0 -378 96q-171 98 -270 268q-99 173 -99 382z"/>
<glyph glyph-name="oe" horiz-adv-x="2054" unicode="œ" d="M1147 598h672q-15 136 -108 222q-92 85 -232 85q-117 0 -212 -81q-94 -79 -120 -226zM608 119q160 0 263 108q104 109 104 279t-104 279q-103 108 -263 108q-158 0 -262 -108q-104 -109 -104 -279t104 -279q103 -108 262 -108zM608 1040q142 0 260 -64t189 -177 q68 112 180 176q113 65 242 65q216 0 352 -136q137 -135 137 -359v-82h-829q9 -108 65 -188q109 -156 297 -156q109 0 194 36q86 38 185 128h16l-6 -179q-92 -68 -184 -100.5t-203 -32.5q-141 0 -259 65q-116 64 -187 177q-70 -114 -188 -178t-261 -64q-226 0 -378 151 q-152 152 -152 384q0 231 152 383q152 151 378 151z"/>
<glyph glyph-name="Scaron" horiz-adv-x="1060" unicode="Š" d="M424 1575l-205 280h123l188 -182l191 182h123l-205 -280h-215zM109 135l12 213h20q77 -98 168 -160q91 -61 209 -61q125 0 199 68t74 182q0 113 -87 188q-71 63 -219 129q-165 71 -261 176q-97 106 -97 242q0 158 118 254t290 96q199 0 333 -114l9 -197h-27 q-140 164 -322 164q-103 0 -171 -56q-66 -55 -66 -141q0 -88 75.5 -157.5t231.5 -135.5q187 -79 282 -183t95 -241q0 -184 -130 -307q-129 -123 -327 -123q-240 0 -409 164z"/>
<glyph glyph-name="scaron" horiz-adv-x="864" unicode="š" d="M326 1153l-205 281h123l188 -183l191 183h122l-204 -281h-215zM82 74l39 155h12q142 -110 289 -110q95 0 150 41t55 110q0 72 -56 113q-54 40 -180 82q-119 40 -195 104q-87 76 -87 199q0 111 95 191q96 81 234 81q151 0 281 -77l6 -156h-14q-128 98 -273 98 q-80 0 -131 -35.5t-51 -97.5q0 -67 58 -107q62 -43 182 -85q140 -48 215 -113q80 -68 80 -188q0 -132 -109 -220t-262 -88q-181 0 -338 103z"/>
<glyph glyph-name="Ydieresis" horiz-adv-x="1200" unicode="Ÿ" d="M674 1706q0 45 32 79q31 34 76 34q46 0 79 -34q34 -33 34 -79q0 -44 -34 -77q-34 -32 -79 -32q-44 0 -76 32q-32 34 -32 77zM307 1706q0 45 32 79q33 34 77 34q46 0 79 -34q33 -33 33 -79q0 -44 -33 -77q-34 -32 -79 -32q-43 0 -77 32q-32 34 -32 77zM508 623l-479 811 h196l375 -652l375 652h196l-479 -811v-623h-184v623z"/>
<glyph glyph-name="circumflex" horiz-adv-x="780" unicode="ˆ" d="M201 1153h-123l205 281h215l204 -281h-122l-191 182z"/>
<glyph glyph-name="tilde" horiz-adv-x="1071" unicode="˜" d="M184 1180h-10l14 147q92 86 203 86q45 0 92.5 -17.5t80.5 -41.5q83 -58 145 -58q88 0 178 99h10l-14 -148q-92 -86 -203 -86q-90 0 -173 58q-81 59 -145 59q-89 0 -178 -98z"/>
<glyph glyph-name="pi" horiz-adv-x="1193" unicode="π" d="M197 868h-174v144h1148v-144h-174v-868h-163v868h-474v-868h-163v868z"/>
<glyph glyph-name="uni2002" horiz-adv-x="1067" unicode=" "/>
<glyph glyph-name="uni2003" horiz-adv-x="2134" unicode=" "/>
<glyph glyph-name="uni2009" horiz-adv-x="426" unicode=" "/>
<glyph glyph-name="endash" horiz-adv-x="1110" unicode="–" d="M1024 582h-938v135h938v-135z"/>
<glyph glyph-name="emdash" horiz-adv-x="1785" unicode="—" d="M1700 582h-1614v135h1614v-135z"/>
<glyph glyph-name="quoteleft" horiz-adv-x="397" unicode="‘" d="M82 1141q0 95 49 175.5t133 137.5l35 -33q-94 -77 -98 -170q45 0 80 -32q34 -31 34 -80q0 -51 -32.5 -86t-81.5 -35q-51 0 -85 36t-34 87z"/>
<glyph glyph-name="quotesinglbase" horiz-adv-x="413" unicode="‚" d="M90 113q0 51 33 85.5t82 34.5q51 0 85 -35.5t34 -86.5q0 -95 -49.5 -176t-133.5 -138l-35 33q94 76 99 170q-46 0 -81 32q-34 33 -34 81z"/>
<glyph glyph-name="quotedblleft" horiz-adv-x="688" unicode="“" d="M373 1141q0 95 49 175.5t133 137.5l35 -33q-94 -77 -98 -170q45 0 80 -32q34 -31 34 -80q0 -51 -32.5 -86t-81.5 -35q-51 0 -85 36t-34 87zM82 1141q0 95 49 175.5t133 137.5l35 -33q-94 -77 -98 -170q45 0 80 -32q34 -31 34 -80q0 -51 -32.5 -86t-81.5 -35q-51 0 -85 36 t-34 87z"/>
<glyph glyph-name="quotedblright" horiz-adv-x="688" unicode="”" d="M373 1333q0 51 32.5 86t81.5 35q51 0 85 -36t34 -87q0 -95 -49 -175.5t-133 -137.5l-35 33q94 77 98 170q-45 0 -80 32q-34 31 -34 80zM82 1333q0 51 33 86t82 35q51 0 84.5 -35.5t33.5 -87.5q0 -95 -49 -175.5t-133 -137.5l-35 33q94 76 99 170q-46 0 -81 32 q-34 31 -34 80z"/>
<glyph glyph-name="dagger" horiz-adv-x="778" unicode="†" d="M305 864h-272v148h272v422h164v-422h276v-148h-276v-1327h-164v1327z"/>
<glyph glyph-name="daggerdbl" horiz-adv-x="778" unicode="‡" d="M305 0h-272v147h272v717h-272v148h272v422h164v-422h276v-148h-276v-717h276v-147h-276v-463h-164v463z"/>
<glyph glyph-name="ellipsis" horiz-adv-x="1277" unicode="…" d="M954 102q0 50 34 84q35 35 81 35q49 0 84 -35t35 -84q0 -46 -35 -81q-35 -33 -84 -33q-47 0 -81 33q-34 34 -34 81zM522 102q0 50 34 84q35 35 81 35q49 0 84 -35t35 -84q0 -46 -35 -81q-35 -33 -84 -33q-47 0 -81 33q-34 34 -34 81zM90 102q0 50 34 84q35 35 81 35 q49 0 84 -35t35 -84q0 -46 -35 -81q-35 -33 -84 -33q-47 0 -81 33q-34 34 -34 81z"/>
<glyph glyph-name="perthousand" horiz-adv-x="2035" unicode="‰" d="M1493 443q-57 -56 -57 -148t57 -149q59 -56 143 -56t143 56q58 57 58 149q0 93 -58 148q-58 57 -143 57q-84 0 -143 -57zM1401 64q-96 94 -96 231t96 230t235 93t235 -93q97 -93 97 -230t-97 -231q-96 -93 -235 -93t-235 93zM756 443q-58 -55 -58 -148q0 -92 58 -149 q59 -56 143 -56t143 56q58 57 58 149q0 93 -58 148q-59 57 -143 57q-85 0 -143 -57zM663 64q-96 94 -96 231t96 230q97 93 236 93t235 -93q97 -93 97 -230t-97 -231q-96 -93 -235 -93t-236 93zM265 1287q-58 -55 -58 -148q0 -92 58 -149q59 -56 143 -56t142 56q58 57 58 149 q0 93 -58 148q-58 56 -142 56t-143 -56zM190 418l-51 100l961 498l51 -101zM172 908q-96 94 -96 231t96 230q97 93 236 93t235 -93t96 -230t-96 -231q-96 -93 -235 -93t-236 93z"/>
<glyph glyph-name="guilsinglleft" horiz-adv-x="638" unicode="‹" d="M535 262l-469 406v86l469 405h22v-168l-330 -280l330 -281v-168h-22z"/>
<glyph glyph-name="guilsinglright" horiz-adv-x="638" unicode="›" d="M104 262h-22v168l330 281l-330 280v168h22l469 -405v-86z"/>
<glyph glyph-name="fraction" horiz-adv-x="1298" unicode="⁄" d="M195 418l-52 100l961 498l51 -101z"/>
<glyph glyph-name="Euro" horiz-adv-x="1286" unicode="€" d="M172 504h-147l45 127h80q-5 40 -5 86t5 86h-125l45 127h102q62 234 237 382q175 150 416 150q207 0 334 -96l15 -176h-21q-80 66 -154 91q-76 26 -178 26q-156 0 -283 -103q-126 -102 -178 -274h601l-46 -127h-581q-4 -48 -4 -86t4 -86h627l-46 -127h-555 q53 -174 178 -275q126 -102 283 -102q102 0 178 26q74 25 154 91h21l-15 -176q-128 -97 -334 -97q-241 0 -416 150t-237 383z"/>
<glyph glyph-name="trademark" horiz-adv-x="1433" unicode="™" d="M643 717h-115l199 717h21l213 -478l213 478h20l199 -717h-115l-115 436l-194 -436h-17l-194 436zM225 1331h-184v103h491v-103h-184v-614h-123v614z"/>
<glyph glyph-name="partialdiff" horiz-adv-x="1161" unicode="∂" d="M571 135q128 0 220 92q92 94 92 228q0 135 -92 227t-220 92q-126 0 -218 -92q-91 -91 -91 -227t91 -228q92 -92 218 -92zM78 455q0 100 39.5 190.5t107.5 152.5q66 62 153 97t177 35q94 0 178.5 -37t149.5 -102q-9 144 -71 262q-60 117 -155 182t-204 65q-69 0 -115 -13 q-46 -12 -100 -38l-21 13l41 172q116 28 207 28q148 0 267 -71q119 -70 195 -193q156 -249 156 -608q0 -277 -143 -449q-143 -170 -375 -170q-135 0 -248 65q-111 65 -176 177q-63 111 -63 242z"/>
<glyph glyph-name="product" horiz-adv-x="1253" unicode="∏" d="M328 -463h-185v1897h967v-1897h-184v1741h-598v-1741z"/>
<glyph glyph-name="summation" horiz-adv-x="1179" unicode="∑" d="M1108 0h-1036v41l477 717l-445 635v41h963v-156h-686l352 -520l-397 -602h772v-156z"/>
<glyph glyph-name="minus" horiz-adv-x="987" unicode="−" d="M901 684h-815v135h815v-135z"/>
<glyph glyph-name="radical" horiz-adv-x="1028" unicode="√" d="M205 623h-170v135h287l184 -533l319 1209h156l-391 -1434h-160z"/>
<glyph glyph-name="infinity" horiz-adv-x="1163" unicode="∞" d="M694 1290v-411q62 27 97.5 81.5t35.5 124.5t-35.5 124t-97.5 81zM694 688v-541q82 31 131 102.5t49 168.5q0 95 -48.5 166t-131.5 104zM539 1311v-453q18 -2 43 -2t43 2v453q-32 4 -43 4t-43 -4zM539 705v-576q12 -2 43 -2t43 2v576q-28 4 -43 4t-43 -4zM469 879v411 q-62 -27 -97.5 -81t-35.5 -124t35.5 -124.5t97.5 -81.5zM289 418q0 -97 49 -168.5t131 -102.5v541q-83 -33 -131.5 -104t-48.5 -166zM113 410q0 128 63 225q65 99 166 153q-170 116 -170 297q0 134 81 233q81 100 216 132v139h70v-129q14 2 43 2t43 -2v129h69v-139 q134 -32 215 -132q82 -100 82 -233q0 -181 -170 -297q101 -54 166 -153q64 -97 64 -225q0 -91 -39 -178q-38 -85 -122 -157q-81 -68 -196 -91v-140h-69v129q-5 0 -22 -1t-21 -1t-21 1t-22 1v-129h-70v140q-116 23 -197 92q-159 133 -159 334z"/>
<glyph glyph-name="approxequal" horiz-adv-x="983" unicode="≈" d="M111 748h-13l13 149q86 86 194 86q52 0 107 -18t95 -43q106 -60 183 -60q94 0 182 88h13l-13 -149q-86 -86 -194 -86q-97 0 -203 60q-96 61 -182 61q-94 0 -182 -88zM111 440h-13l13 150q86 86 194 86q52 0 107 -18t95 -43q106 -60 183 -60q94 0 182 88h13l-13 -149 q-86 -86 -194 -86q-97 0 -203 60q-101 60 -182 60q-94 0 -182 -88z"/>
<glyph glyph-name="notequal" horiz-adv-x="1011" unicode="≠" d="M274 397h-176v135h248l168 316h-416v135h490l102 193h152l-105 -193h176v-135h-247l-168 -316h415v-135h-489l-102 -192h-152z"/>
<glyph glyph-name="lessequal" horiz-adv-x="1011" unicode="≤" d="M776 365l-618 438v143l618 438h21v-165l-490 -345l490 -344v-165h-21zM913 0h-815v135h815v-135z"/>
<glyph glyph-name="greaterequal" horiz-adv-x="1011" unicode="≥" d="M178 365h-20v165l489 344l-489 345v165h20l619 -438v-143zM913 0h-815v135h815v-135z"/>
<glyph glyph-name="lozenge" horiz-adv-x="1110" unicode="◊" d="M555 1292l-346 -575l346 -576l346 576zM459 0l-434 717l434 717h192l434 -717l-434 -717h-192z"/>
</font>
</defs>
</svg>
